<?xml version="1.0" encoding="utf-8"?>
<!-- Generator: Adobe Illustrator 20.1.0, SVG Export Plug-In . SVG Version: 6.00 Build 0)  -->
<svg version="1.1" id="Layer_1" xmlns="http://www.w3.org/2000/svg" xmlns:xlink="http://www.w3.org/1999/xlink" x="0px" y="0px"
	 viewBox="20.9 17.5 739.6 52.8" style="enable-background:new 20.9 17.5 739.6 52.8;" xml:space="preserve">
<style type="text/css">
	.st0{fill:#FFFFFF;}
</style>
<g>
	<path class="st0" d="M177.9,17.5h2.7v2.9c0,2.1-1.1,3.2-3.4,3.2h-2.7v-2.9C174.6,18.6,175.7,17.5,177.9,17.5z M174.6,31.6
		c0-2.1,1.1-3.2,3.4-3.2h2.7v30.5h-2.7c-2.2,0-3.4-1.1-3.4-3.2V31.6z"/>
	<path class="st0" d="M196,52.7c0.8,0.7,1.7,1,2.9,1v2.8c0,1.4-0.6,2.2-1.9,2.5c-1,0.3-2,0.2-3.1-0.4c-1.6-0.8-2.9-1.9-3.8-3.4
		c-1.1-1.7-1.6-3.7-1.6-6.2V20.7c0-2.1,1.1-3.2,3.4-3.2h2.7v31.6C194.6,50.7,195.1,51.9,196,52.7z"/>
	<path class="st0" d="M227.2,31c3,2.5,4.5,5.5,4.5,9.1v18.8h-1.8c-1.5,0-2.6-0.8-3.4-2.5c-2.5,2.4-5.9,3.4-9.4,3.4
		c-3.9,0-7.3-1.2-10.1-3.5c-3-2.5-4.5-5.5-4.5-9.1v-7.1c0-3.6,1.5-6.7,4.5-9.1c2.8-2.3,6.2-3.5,10.1-3.5
		C220.9,27.5,224.3,28.7,227.2,31z M217.1,33.5c-2.5,0-4.5,0.7-6.2,2.2c-1.5,1.3-2.3,2.7-2.3,4.4v7.1c0,1.7,0.8,3.2,2.3,4.4
		c1.7,1.4,3.8,2.1,6.2,2.1s4.5-0.7,6.2-2.1c1.5-1.3,2.3-2.7,2.3-4.4v-7.1c0-1.7-0.8-3.2-2.3-4.4C221.6,34.2,219.6,33.5,217.1,33.5z"
		/>
	<path class="st0" d="M275.3,31.6c0-2.1,1.1-3.2,3.4-3.2h2.7v18.8c0,3.9-1.1,7-3.2,9.2c-2.2,2.3-5.2,3.4-9,3.4
		c-3.8,0-6.9-1.3-9.2-3.9c-2.3,2.6-5.4,3.9-9.2,3.9c-3.8,0-6.8-1.1-9-3.4c-2.2-2.2-3.2-5.3-3.2-9.2V31.6c0-2.1,1.1-3.2,3.4-3.2h2.7
		v18.8c0,2.3,0.5,4,1.6,5c1,1,2.5,1.6,4.6,1.6c1.9,0,3.4-0.5,4.4-1.6c1.1-1.2,1.7-2.8,1.7-4.9V31.6c0-2.1,1.1-3.2,3.4-3.2h2.7v18.8
		c0,2.1,0.6,3.7,1.7,4.9c1.1,1.1,2.6,1.6,4.4,1.6c2.1,0,3.6-0.5,4.6-1.6s1.6-2.7,1.6-5L275.3,31.6L275.3,31.6z"/>
	<path class="st0" d="M315.2,28.4l-11.9,33.5c-0.3,0.8-0.6,1.5-0.9,2.3c-0.2,0.7-0.5,1.3-1,2c-0.8,1.3-2,2.3-3.4,3
		c-1.1,0.5-2.2,0.6-3.1,0.4c-1.2-0.3-1.8-1.1-1.8-2.5v-2.8c0.7,0,1.4-0.2,2-0.5c0.8-0.4,1.3-0.8,1.5-1.5l1.2-3.1
		c-1.9-0.5-3.1-1.4-3.7-2.9l-8.9-25.1c-0.3-0.8-0.3-1.4,0-1.9c0.3-0.5,0.8-0.8,1.7-0.8h3.8l8.9,25.2h0.1l8.2-22.9
		c0.5-1.5,1.6-2.3,3.2-2.3L315.2,28.4L315.2,28.4z"/>
	<path class="st0" d="M339.9,29c1.5,0.8,2.8,1.9,3.8,3.2c1.1,1.6,1.7,3.4,1.7,5.3c0.1,1.6-0.3,3.1-1,4.5c-0.7,1.1-1.5,2.1-2.6,2.9
		c-1.1,0.8-2.3,1.4-3.7,1.7c-1.2,0.4-2.5,0.5-4,0.5h-7.3c-0.5,0-0.9,0-1.1-0.1c-0.4-0.1-0.8-0.3-1-0.5v2.5c0,1.4,0.7,2.6,2.2,3.4
		c1.2,0.7,2.6,1.1,4.1,1.2c1.4,0.2,2.9,0.1,4.4-0.3c1.1-0.2,2-0.7,2.9-1.3c0.2-0.2,0.5-0.4,0.8-0.7c0.9-1.1,2.1-1.3,3.6-0.5l2.9,1.4
		c-0.5,1.3-1.3,2.4-2.3,3.4c-1.4,1.4-3.1,2.5-5.2,3.1c-1.8,0.7-3.8,1-5.9,1c-1.8,0-3.4-0.2-4.7-0.5c-1.7-0.4-3.1-1-4.4-1.9
		c-1.5-1-2.6-2.3-3.4-4c-0.7-1.6-1.1-3.3-1.1-5.2v-9.9c0-1.5,0.4-3,1-4.4c1-2.2,2.8-3.8,5.1-4.9c2.1-1,4.4-1.5,7.1-1.5
		C334.5,27.5,337.4,27.8,339.9,29z M337.6,40.4c1-0.5,1.5-1.4,1.7-2.5c0.1-1.1-0.3-2.1-1.1-2.8c-1.2-1-2.9-1.3-4.4-1.5
		c-1.7-0.1-3.3,0.1-4.6,0.4c-1.3,0.3-2.3,0.8-3.1,1.4c-0.9,0.8-1.4,1.7-1.4,2.9v2.9h10C335.8,41.1,336.9,40.8,337.6,40.4z"/>
	<path class="st0" d="M350.9,39.1c0-3.6,1.1-6.4,3.5-8.3c1.9-1.6,4.2-2.4,6.9-2.4h4v2.7c0,2.2-1,3.4-3.1,3.4h-0.8
		c-1.1,0-2,0.4-2.9,1c-1,0.8-1.4,2-1.4,3.6v19.8h-2.7c-2.2,0-3.4-1.1-3.4-3.2L350.9,39.1L350.9,39.1z"/>
	<path class="st0" d="M404.8,35.1c-1-1-2.5-1.6-4.6-1.6c-1.9,0-3.4,0.5-4.4,1.7c-1.1,1.3-1.7,2.9-1.7,4.9v18.8h-2.7
		c-2.2,0-3.4-1.1-3.4-3.2V40.1c0-2-0.5-3.7-1.7-4.9c-1.1-1.1-2.6-1.7-4.4-1.7c-2.1,0-3.7,0.5-4.6,1.6c-1,1.1-1.6,2.8-1.6,5v18.8
		h-2.7c-2.2,0-3.4-1.1-3.4-3.2V40.1c0-3.8,1.1-6.9,3.2-9.2c2.2-2.3,5.2-3.5,9-3.5c3.2,0,5.8,1,8,2.8c0.3,0.2,0.7,0.6,1.2,1.1
		c0.4-0.4,0.8-0.8,1.1-1.1c2.1-1.9,4.8-2.8,8-2.8c3.8,0,6.8,1.1,9,3.5c2.2,2.3,3.2,5.3,3.2,9.2v18.8h-2.7c-2.2,0-3.4-1.1-3.4-3.2
		V40.1C406.3,37.9,405.8,36.2,404.8,35.1z"/>
	<path class="st0" d="M442.9,31c3,2.5,4.5,5.5,4.5,9.1v18.8h-1.8c-1.5,0-2.6-0.8-3.4-2.5c-2.5,2.4-5.9,3.4-9.4,3.4
		c-3.9,0-7.3-1.2-10.1-3.5c-3-2.5-4.5-5.5-4.5-9.1v-7.1c0-3.6,1.5-6.7,4.5-9.1c2.8-2.3,6.2-3.5,10.1-3.5
		C436.7,27.5,440.1,28.7,442.9,31z M432.9,33.5c-2.5,0-4.5,0.7-6.2,2.2c-1.5,1.3-2.3,2.7-2.3,4.4v7.1c0,1.7,0.8,3.2,2.3,4.4
		c1.7,1.4,3.8,2.1,6.2,2.1s4.5-0.7,6.2-2.1c1.5-1.3,2.3-2.7,2.3-4.4v-7.1c0-1.7-0.8-3.2-2.3-4.4C437.4,34.2,435.3,33.5,432.9,33.5z"
		/>
	<path class="st0" d="M454.3,39.1c0-3.6,1.1-6.4,3.5-8.3c1.9-1.6,4.2-2.4,6.9-2.4h4v2.7c0,2.2-1,3.4-3.1,3.4h-0.8
		c-1.1,0-2,0.4-2.9,1c-1,0.8-1.4,2-1.4,3.6v19.8h-2.7c-2.2,0-3.4-1.1-3.4-3.2V39.1z"/>
	<path class="st0" d="M473.5,20.7c0-2.1,1.1-3.2,3.4-3.2h2.7v23.6h2.2c1.2,0,2.3,0.1,3.1-1.1l5.7-9.4c0.9-1.4,2.2-2.2,3.7-2.2h4.7
		l-7.3,11.9c-0.4,0.7-0.8,1.3-1.2,1.7c2,0.9,3.5,2.6,4.6,5l5.2,11.9h-3.9c-1.8,0-3-0.7-3.5-1.9l-3.3-7.6c-0.7-1.5-1.8-2.3-3.4-2.3
		h-6.5v11.8h-2.7c-2.2,0-3.4-1.1-3.4-3.2L473.5,20.7L473.5,20.7z"/>
	<path class="st0" d="M525.1,29c1.5,0.8,2.8,1.9,3.8,3.2c1.1,1.6,1.7,3.4,1.7,5.3c0.1,1.6-0.3,3.1-1,4.5c-0.7,1.1-1.5,2.1-2.6,2.9
		c-1.1,0.8-2.3,1.4-3.7,1.7c-1.2,0.4-2.5,0.5-4,0.5H512c-0.5,0-0.9,0-1.1-0.1c-0.4-0.1-0.8-0.3-1-0.5v2.5c0,1.4,0.7,2.6,2.2,3.4
		c1.2,0.7,2.6,1.1,4.1,1.2c1.4,0.2,2.9,0.1,4.4-0.3c1.1-0.2,2-0.7,2.9-1.3c0.2-0.2,0.5-0.4,0.8-0.7c0.9-1.1,2.1-1.3,3.6-0.5l2.9,1.4
		c-0.5,1.3-1.3,2.4-2.3,3.4c-1.4,1.4-3.1,2.5-5.2,3.1c-1.8,0.7-3.8,1-5.9,1c-1.8,0-3.4-0.2-4.7-0.5c-1.7-0.4-3.1-1-4.4-1.9
		c-1.5-1-2.6-2.3-3.4-4c-0.7-1.6-1.1-3.3-1.1-5.2v-9.9c0-1.5,0.4-3,1-4.4c1-2.2,2.8-3.8,5.1-4.9c2.1-1,4.4-1.5,7.1-1.5
		C519.7,27.5,522.6,27.8,525.1,29z M522.9,40.4c1-0.5,1.5-1.4,1.7-2.5c0.1-1.1-0.3-2.1-1.1-2.8c-1.2-1-2.9-1.3-4.4-1.5
		c-1.7-0.1-3.3,0.1-4.6,0.4c-1.3,0.3-2.3,0.8-3.1,1.4c-0.9,0.8-1.4,1.7-1.4,2.9v2.9h10C521.1,41.1,522.1,40.8,522.9,40.4z"/>
	<path class="st0" d="M549.6,28.4v2.7c0,2.2-1.1,3.4-3.2,3.4h-4v14.6c0,1.6,0.5,2.8,1.4,3.6c0.8,0.7,1.7,1,2.8,1v2.8
		c0,1.4-0.6,2.2-1.8,2.5c-1,0.3-2,0.2-3.1-0.4c-1.6-0.8-2.9-1.9-3.8-3.4c-1-1.7-1.6-3.7-1.6-6.2V20.7c0-2.1,1.1-3.2,3.3-3.2h2.8
		v10.9H549.6z"/>
	<path class="st0" d="M558,17.5h2.7v2.9c0,2.1-1.1,3.2-3.4,3.2h-2.7v-2.9C554.7,18.6,555.8,17.5,558,17.5z M554.7,31.6
		c0-2.1,1.1-3.2,3.4-3.2h2.7v30.5H558c-2.2,0-3.4-1.1-3.4-3.2V31.6z"/>
	<path class="st0" d="M572.4,30.9c2.7-2.3,5.9-3.4,9.6-3.4c3.7,0,7,1.1,9.7,3.4c2.8,2.5,4.3,5.3,4.3,8.7v19.3h-2.7
		c-2.2,0-3.4-1.1-3.4-3.2V39.6c0-1.6-0.7-2.9-2.1-4.1c-1.6-1.3-3.5-2-5.8-2c-2.3,0-4.2,0.7-5.8,2c-1.4,1.1-2.1,2.5-2.1,4.1v19.3
		h-2.7c-2.2,0-3.4-1.1-3.4-3.2V39.6C568.1,36.2,569.5,33.3,572.4,30.9z"/>
	<path class="st0" d="M626.5,31c3,2.5,4.5,5.5,4.5,9.1v18.5c0,1.9-0.4,3.5-1.1,5c-1.5,3.1-4.5,5-7.6,5.9c-1.6,0.5-3.4,0.7-5.3,0.7
		c-1.6,0-3.2-0.2-4.7-0.5c-1.4-0.3-2.3-0.8-2.8-1.6c-0.4-0.6-0.4-1.4-0.1-2.5l0.5-2.4c1.4,0.6,3.1,1,5.3,1c2,0.1,3.8-0.2,5.3-0.6
		c2.9-0.8,4.4-2.5,4.4-5.2v-1.2c-2.5,1.6-5.3,2.4-8.5,2.4c-3.9,0-7.3-1.2-10.1-3.5c-3-2.5-4.5-5.5-4.5-9.1v-7.1
		c0-3.6,1.5-6.7,4.5-9.1c2.8-2.3,6.2-3.5,10.1-3.5C620.3,27.5,623.7,28.7,626.5,31z M616.5,33.5c-2.5,0-4.5,0.7-6.2,2.2
		c-1.5,1.3-2.3,2.7-2.3,4.4v7.1c0,1.7,0.8,3.2,2.3,4.4c1.7,1.4,3.8,2.1,6.2,2.1s4.5-0.7,6.2-2.1c1.5-1.3,2.3-2.7,2.3-4.4v-7.1
		c0-1.7-0.8-3.2-2.3-4.4C621,34.2,618.9,33.5,616.5,33.5z"/>
	<path class="st0" d="M641.8,52.1h2.7v3.7c0,2.1-1.1,3.2-3.4,3.2h-2.7v-3.7C638.4,53.2,639.6,52.1,641.8,52.1z"/>
	<path class="st0" d="M651,39.6c0-3.4,1.4-6.3,4.3-8.7c2.7-2.3,5.9-3.4,9.6-3.4s7,1.1,9.7,3.4c1.6,1.4,2.8,2.9,3.5,4.8l-2.6,1.4
		c-1.6,0.8-2.9,0.5-4-0.7c-0.4-0.4-0.6-0.7-0.8-0.8c-1.6-1.3-3.5-2-5.8-2c-2.3,0-4.2,0.7-5.8,2c-1.4,1.2-2.1,2.6-2.1,4.1v8.2
		c0,1.6,0.7,2.9,2.1,4.1c1.6,1.3,3.5,1.9,5.8,1.9c2.3,0,4.2-0.7,5.8-1.9c0.2-0.2,0.4-0.4,0.8-0.8c1.1-1.3,2.4-1.5,4-0.7l2.6,1.4
		c-0.7,1.9-1.9,3.4-3.5,4.8c-2.7,2.2-5.9,3.4-9.7,3.4c-3.8,0-7-1.1-9.6-3.4c-2.9-2.3-4.3-5.3-4.3-8.7V39.6z"/>
	<path class="st0" d="M707.2,31c3,2.5,4.5,5.5,4.5,9.1v7.1c0,3.6-1.5,6.6-4.5,9.1c-2.8,2.3-6.2,3.5-10.1,3.5
		c-3.9,0-7.3-1.2-10.1-3.5c-3-2.5-4.5-5.5-4.5-9.1v-7.1c0-3.6,1.5-6.7,4.5-9.1c2.8-2.3,6.2-3.5,10.1-3.5
		C701,27.5,704.4,28.7,707.2,31z M697.2,33.5c-2.5,0-4.5,0.7-6.2,2.2c-1.5,1.3-2.3,2.7-2.3,4.4v7.1c0,1.7,0.8,3.2,2.3,4.4
		c1.7,1.4,3.8,2.1,6.2,2.1c2.5,0,4.5-0.7,6.2-2.1c1.5-1.3,2.3-2.7,2.3-4.4v-7.1c0-1.7-0.8-3.2-2.3-4.4
		C701.7,34.2,699.6,33.5,697.2,33.5z"/>
	<path class="st0" d="M752.9,35.1c-1-1-2.5-1.6-4.6-1.6c-1.9,0-3.4,0.5-4.4,1.7c-1.1,1.3-1.7,2.9-1.7,4.9v18.8h-2.7
		c-2.2,0-3.4-1.1-3.4-3.2V40.1c0-2-0.5-3.7-1.7-4.9c-1.1-1.1-2.6-1.7-4.4-1.7c-2.1,0-3.7,0.5-4.6,1.6c-1,1.1-1.6,2.8-1.6,5v18.8H721
		c-2.2,0-3.4-1.1-3.4-3.2V40.1c0-3.8,1.1-6.9,3.2-9.2c2.2-2.3,5.2-3.5,9-3.5c3.2,0,5.8,1,8,2.8c0.3,0.2,0.7,0.6,1.2,1.1
		c0.4-0.4,0.8-0.8,1.1-1.1c2.1-1.9,4.8-2.8,8-2.8c3.8,0,6.8,1.1,9,3.5c2.2,2.3,3.2,5.3,3.2,9.2v18.8h-2.7c-2.2,0-3.4-1.1-3.4-3.2
		V40.1C754.5,37.9,753.9,36.2,752.9,35.1z"/>
</g>
<g>
	<path class="st0" d="M32.8,39.9c0-2.6-0.2-5.2-3.2-5.2c-1.8,0-3,0.7-3,2.7c0,2.2,1.4,3.1,3.1,4.2c1.8,1.1,5.1,3.3,6.6,4.8
		c1.9,1.8,2.5,3.6,2.5,6.1c0,5.5-3.7,8.4-9,8.4c-6.6,0-8.9-3.7-8.9-8.9v-2.1h5.5v1.7c-0.1,2.8,0.7,4.9,3.4,4.9
		c2.3,0,3.4-1.2,3.4-3.4c0-1.7-0.8-2.9-2.2-3.9c-2.8-2.2-6.4-3.8-8.6-6.7C21.5,41.2,21,39.6,21,38c0-5,2.8-7.7,8.6-7.7
		c8.7,0,8.5,6.7,8.5,9.6H32.8z"/>
	<path class="st0" d="M44.9,60.2V31h5.5v29.3H44.9z"/>
	<path class="st0" d="M55.3,31h18.2v4.3h-6.4v25h-5.5v-25h-6.4L55.3,31L55.3,31z"/>
	<path class="st0" d="M78.2,60.2V31h15.4v4.3h-9.9v7.4h9.1V47h-9.1v9h9.9v4.3H78.2z"/>
	<path class="st0" d="M110.6,60.2V31h8.8c2.3,0,4.6,0.2,6.2,2.1c1.2,1.6,1.4,3.3,1.4,5.3c0,2.5-0.5,5-3.5,6.1v0.1
		c3.1,0.4,4.3,3,4.3,6.8c0,1.2-0.1,2.4-0.4,3.6c-1.2,3.7-3.3,5.3-7.2,5.3L110.6,60.2L110.6,60.2z M117.1,42.8c1.3,0,3,0.1,3.9-1
		c0.5-0.7,0.6-1.8,0.6-3.2c0-2.2-0.5-3.3-3-3.4h-2.5v7.5H117.1z M117.2,56c1.1,0,2.3,0.1,3.3-0.3c1.5-0.7,1.7-2.6,1.7-4.1
		c0-3.2-0.6-4.5-4-4.5h-2.1V56L117.2,56L117.2,56z"/>
	<path class="st0" d="M140.8,38.7c0.6,1.4,1.1,2.9,1.3,4.5h0.1c0.4-2.3,1.1-3.9,1.8-5.5l2.6-6.6h6l-7.7,16.8v12.4h-5.5V47.8
		L131.8,31h6L140.8,38.7z"/>
</g>
</svg>
