<!--?xml version="1.0" encoding="utf-8"?-->
<!-- Generator: Adobe Illustrator 20.1.0, SVG Export Plug-In . SVG Version: 6.00 Build 0)  -->
<svg version="1.1" id="text" xmlns="http://www.w3.org/2000/svg" xmlns:xlink="http://www.w3.org/1999/xlink" x="0px" y="0px" viewBox="0 0 786.8 788.3" style="" xml:space="preserve">
<style type="text/css">
	.st0{fill:none;stroke:#007DDC;stroke-width:15;stroke-linecap:round;stroke-linejoin:round;stroke-miterlimit:10;}
</style>
<path class="st0 hutvZpmA_0" d="M286.8,622.1L187.8,721.1"></path>
<path class="st0 hutvZpmA_1" d="M341.5,659.2c-2.8,3.2-8,4.8-13,3.2S312,649,312,649l-98.5,99c0,0,13.1,12.1,14.1,18.1s-2.6,10.4-2.6,10.4
	l-0.8,0.8c-4.7,4.7-12.3,4.7-17,0l-54.3-53.8c-4.7-4.7-4.7-12.3,0-17l118.7-118.7c4.7-4.7,12.3-4.7,17,0l48.6,48.6
	c0,0,6.8,6.2,7.9,9.9C346.8,652.5,343.6,656.8,341.5,659.2z"></path>
<path class="st0 hutvZpmA_2" d="M260.3,596L241.3,577"></path>
<path class="st0 hutvZpmA_3" d="M161,693.7L141.8,674.5"></path>
<path class="st0 hutvZpmA_4" d="M390.2,423.2c0,0-251.5,251.5-257.8,257.8s-17.7,7.3-25.8-3.5c-7.7-10.2-2.7-21.3,1.2-25.2
	c3.8-3.8,257.7-257.7,257.7-257.7"></path>
<path class="st0 hutvZpmA_5" d="M396.5,363.5c0,0,87.5-87,91-92s10-18,10-33.5s-6-36-6-36"></path>
<path class="st0 hutvZpmA_6" d="M522,210.5c0,0,6,29,3.5,51"></path>
<path class="st0 hutvZpmA_7" d="M661,123.7c4-27-2.3-54.5-32.5-84.7c-35.5-35.5-79-29.5-99-25.5c-20,4-55.4,26.3-70,61
	c-15,35.5-12.5,69.5,15.5,108c26.2,36,72.5,26.5,72.5,26.5s37.4-7.2,44-45c6.5-37-29.5-59.5-29.5-59.5s-9-2.5-14.5,2s-5,10-3.5,16
	s19,10.5,19.5,30c0.5,17.7-10.3,26.6-24,30.5c-19.5,5.5-40-10-50-28.5C479.1,135.2,468,89,502.5,59s74.8-27,103.5-5.5
	c28.7,21.5,31,56.5,30,66c-1,9.2-2.3,14.2-2.3,14.2"></path>
<path class="st0 hutvZpmA_8" d="M639.4,48.9c12-24.5,37.1-41.4,66.3-41.4c40.7,0,73.7,33,73.7,73.7c0,29.3-17.1,54.5-41.8,66.4"></path>
<path class="st0 hutvZpmA_9" d="M658.5,81.6c0-25.8,20.9-46.6,46.6-46.6c25.8,0,46.6,20.9,46.6,46.6s-20.9,46.6-46.6,46.6"></path>
<path class="st0 hutvZpmA_10" d="M422.9,390.4c0,0,87-87.5,92-91c5-3.5,18-10,33.5-10s36,6,36,6"></path>
<path class="st0 hutvZpmA_11" d="M575.9,264.9c0,0-24.9-6.4-46.9-3.9"></path>
<path class="st0 hutvZpmA_12" d="M663,125.3c27-4,54.2,2.9,84.4,33.1c35.5,35.5,29.5,79,25.5,99s-26.3,55.4-61,70c-35.5,15-69.5,12.5-108-15.5
	c-36-26.2-26.5-72.5-26.5-72.5s7.2-37.4,45-44c37-6.5,59.5,29.5,59.5,29.5s2.5,9-2,14.5s-10,5-16,3.5s-10.5-19-30-19.5
	c-17.7-0.5-26.6,10.3-30.5,24c-5.5,19.5,10,40,28.5,50c19.3,10.4,65.5,21.5,95.5-13s27.7-75.4,5.5-103.5c-24.5-31-56.5-29.5-66-30
	c-3.8-0.2-9.6,1.3-13.2,2.1"></path>
<path class="st0 hutvZpmA_13" d="M737.5,147.5c24.5-11.9,41.4-37.1,41.4-66.3c0-40.7-33-73.7-73.7-73.7c-29.3,0-54.5,17.1-66.4,41.8"></path>
<path class="st0 hutvZpmA_14" d="M704.8,128.4c25.8,0,46.6-20.9,46.6-46.6s-20.9-46.6-46.6-46.6c-25.8,0-46.6,20.9-46.6,46.6"></path>
<path class="st0 hutvZpmA_15" d="M634,133.3c0,0-2.5,10.2,3.5,16.2c6.8,6.8,18.5,2.8,18.5,2.8"></path>
<path class="st0 hutvZpmA_16" d="M500,622.1L599,721.1"></path>
<path class="st0 hutvZpmA_17" d="M445.3,659.2c2.8,3.2,8,4.8,13,3.2s16.5-13.5,16.5-13.5l98.5,99c0,0-13.1,12.1-14.1,18.1s2.6,10.4,2.6,10.4
	l0.8,0.8c4.7,4.7,12.3,4.7,17,0l54.3-53.8c4.7-4.7,4.7-12.3,0-17L515.2,587.8c-4.7-4.7-12.3-4.7-17,0l-48.6,48.6
	c0,0-6.8,6.2-7.9,9.9C440.1,652.5,443.2,656.8,445.3,659.2z"></path>
<path class="st0 hutvZpmA_18" d="M526.5,596L545.5,577"></path>
<path class="st0 hutvZpmA_19" d="M396.6,423.2c0,0,251.5,251.5,257.8,257.8c6.3,6.3,17.7,7.3,25.8-3.5c7.7-10.2,2.7-21.3-1.2-25.2
	c-3.8-3.8-257.7-257.7-257.7-257.7"></path>
<path class="st0 hutvZpmA_20" d="M452.9,426.1c0,0-150.1-149.6-153.6-154.6s-10-18-10-33.5s6-36,6-36"></path>
<path class="st0 hutvZpmA_21" d="M264.8,210.5c0,0-6,29-3.5,51"></path>
<path class="st0 hutvZpmA_22" d="M125.8,123.7c-4-27,2.3-54.5,32.5-84.7c35.5-35.5,79-29.5,99-25.5s55.4,26.3,70,61c15,35.5,12.5,69.5-15.5,108
	c-26.2,36-72.5,26.5-72.5,26.5s-37.4-7.2-44-45c-6.5-37,29.5-59.5,29.5-59.5s9-2.5,14.5,2s5,10,3.5,16s-19,10.5-19.5,30
	c-0.5,17.7,10.3,26.6,24,30.5c19.5,5.5,40-10,50-28.5c10.4-19.3,21.5-65.5-13-95.5s-74.8-27-103.5-5.5c-28.7,21.5-31,56.5-30,66
	c1,9.2,2.3,14.2,2.3,14.2"></path>
<path class="st0 hutvZpmA_23" d="M147.4,48.9C135.5,24.4,110.3,7.5,81.2,7.5c-40.7,0-73.7,33-73.7,73.7c0,29.3,17.1,54.5,41.8,66.4"></path>
<path class="st0 hutvZpmA_24" d="M128.3,81.6c0-25.8-20.9-46.6-46.6-46.6S35,55.9,35,81.6s20.9,46.6,46.6,46.6"></path>
<path class="st0 hutvZpmA_25" d="M426.5,453c0,0-149.6-150.1-154.6-153.6s-18-10-33.5-10s-36,6-36,6"></path>
<path class="st0 hutvZpmA_26" d="M210.9,264.9c0,0,28.1-5.4,50.1-2.9"></path>
<path class="st0 hutvZpmA_27" d="M123.8,125.3c-27-4-54.2,2.9-84.4,33.1c-35.5,35.5-29.5,79-25.5,99s26.3,55.4,61,70c35.5,15,69.5,12.5,108-15.5
	c36-26.2,26.5-72.5,26.5-72.5s-7.2-37.4-45-44c-37-6.5-59.5,29.5-59.5,29.5s-2.5,9,2,14.5s10,5,16,3.5s10.5-19,30-19.5
	c17.7-0.5,26.6,10.3,30.5,24c5.5,19.5-10,40-28.5,50c-19.3,10.4-65.5,21.5-95.5-13S31.7,209,53.9,180.9c24.5-31,56.5-29.5,66-30
	c3.8-0.2,9.6,1.3,13.2,2.1"></path>
<path class="st0 hutvZpmA_28" d="M49.4,147.5C24.8,135.6,7.9,110.4,7.9,81.3c0-40.7,33-73.7,73.7-73.7c29.3,0,54.5,17.1,66.4,41.8"></path>
<path class="st0 hutvZpmA_29" d="M82,128.4c-25.8,0-46.6-20.9-46.6-46.6S56.3,35.1,82,35.1s46.6,20.9,46.6,46.6"></path>
<path class="st0 hutvZpmA_30" d="M152.8,133.3c0,0,1.2,8.7-4.8,14.7c-6.8,6.8-17.2,4.3-17.2,4.3"></path>
<path class="st0 hutvZpmA_31" d="M646,674L627,693"></path>
<style>.hutvZpmA_0{stroke-dasharray:141 143;stroke-dashoffset:142;animation:hutvZpmA_draw 1333ms linear 0ms forwards;}.hutvZpmA_1{stroke-dasharray:607 609;stroke-dashoffset:608;animation:hutvZpmA_draw 1333ms linear 21ms forwards;}.hutvZpmA_2{stroke-dasharray:27 29;stroke-dashoffset:28;animation:hutvZpmA_draw 1333ms linear 43ms forwards;}.hutvZpmA_3{stroke-dasharray:28 30;stroke-dashoffset:29;animation:hutvZpmA_draw 1333ms linear 64ms forwards;}.hutvZpmA_4{stroke-dasharray:787 789;stroke-dashoffset:788;animation:hutvZpmA_draw 1333ms linear 86ms forwards;}.hutvZpmA_5{stroke-dasharray:202 204;stroke-dashoffset:203;animation:hutvZpmA_draw 1333ms linear 107ms forwards;}.hutvZpmA_6{stroke-dasharray:52 54;stroke-dashoffset:53;animation:hutvZpmA_draw 1333ms linear 129ms forwards;}.hutvZpmA_7{stroke-dasharray:1112 1114;stroke-dashoffset:1113;animation:hutvZpmA_draw 1333ms linear 150ms forwards;}.hutvZpmA_8{stroke-dasharray:281 283;stroke-dashoffset:282;animation:hutvZpmA_draw 1333ms linear 172ms forwards;}.hutvZpmA_9{stroke-dasharray:220 222;stroke-dashoffset:221;animation:hutvZpmA_draw 1333ms linear 193ms forwards;}.hutvZpmA_10{stroke-dasharray:202 204;stroke-dashoffset:203;animation:hutvZpmA_draw 1333ms linear 215ms forwards;}.hutvZpmA_11{stroke-dasharray:48 50;stroke-dashoffset:49;animation:hutvZpmA_draw 1333ms linear 236ms forwards;}.hutvZpmA_12{stroke-dasharray:1111 1113;stroke-dashoffset:1112;animation:hutvZpmA_draw 1333ms linear 258ms forwards;}.hutvZpmA_13{stroke-dasharray:281 283;stroke-dashoffset:282;animation:hutvZpmA_draw 1333ms linear 279ms forwards;}.hutvZpmA_14{stroke-dasharray:220 222;stroke-dashoffset:221;animation:hutvZpmA_draw 1333ms linear 301ms forwards;}.hutvZpmA_15{stroke-dasharray:37 39;stroke-dashoffset:38;animation:hutvZpmA_draw 1333ms linear 322ms forwards;}.hutvZpmA_16{stroke-dasharray:141 143;stroke-dashoffset:142;animation:hutvZpmA_draw 1333ms linear 344ms forwards;}.hutvZpmA_17{stroke-dasharray:607 609;stroke-dashoffset:608;animation:hutvZpmA_draw 1333ms linear 365ms forwards;}.hutvZpmA_18{stroke-dasharray:27 29;stroke-dashoffset:28;animation:hutvZpmA_draw 1333ms linear 387ms forwards;}.hutvZpmA_19{stroke-dasharray:787 789;stroke-dashoffset:788;animation:hutvZpmA_draw 1333ms linear 408ms forwards;}.hutvZpmA_20{stroke-dasharray:290 292;stroke-dashoffset:291;animation:hutvZpmA_draw 1333ms linear 430ms forwards;}.hutvZpmA_21{stroke-dasharray:52 54;stroke-dashoffset:53;animation:hutvZpmA_draw 1333ms linear 451ms forwards;}.hutvZpmA_22{stroke-dasharray:1112 1114;stroke-dashoffset:1113;animation:hutvZpmA_draw 1333ms linear 473ms forwards;}.hutvZpmA_23{stroke-dasharray:281 283;stroke-dashoffset:282;animation:hutvZpmA_draw 1333ms linear 494ms forwards;}.hutvZpmA_24{stroke-dasharray:220 222;stroke-dashoffset:221;animation:hutvZpmA_draw 1333ms linear 516ms forwards;}.hutvZpmA_25{stroke-dasharray:290 292;stroke-dashoffset:291;animation:hutvZpmA_draw 1333ms linear 537ms forwards;}.hutvZpmA_26{stroke-dasharray:51 53;stroke-dashoffset:52;animation:hutvZpmA_draw 1333ms linear 559ms forwards;}.hutvZpmA_27{stroke-dasharray:1111 1113;stroke-dashoffset:1112;animation:hutvZpmA_draw 1333ms linear 580ms forwards;}.hutvZpmA_28{stroke-dasharray:281 283;stroke-dashoffset:282;animation:hutvZpmA_draw 1333ms linear 602ms forwards;}.hutvZpmA_29{stroke-dasharray:220 222;stroke-dashoffset:221;animation:hutvZpmA_draw 1333ms linear 623ms forwards;}.hutvZpmA_30{stroke-dasharray:35 37;stroke-dashoffset:36;animation:hutvZpmA_draw 1333ms linear 645ms forwards;}.hutvZpmA_31{stroke-dasharray:27 29;stroke-dashoffset:28;animation:hutvZpmA_draw 1333ms linear 666ms forwards;}@keyframes hutvZpmA_draw{100%{stroke-dashoffset:0;}}@keyframes hutvZpmA_fade{0%{stroke-opacity:1;}93.54838709677419%{stroke-opacity:1;}100%{stroke-opacity:0;}}</style></svg>
