<?xml version="1.0" encoding="utf-8"?>
<!-- Generator: Adobe Illustrator 20.1.0, SVG Export Plug-In . SVG Version: 6.00 Build 0)  -->
<svg version="1.1" id="text" xmlns="http://www.w3.org/2000/svg" xmlns:xlink="http://www.w3.org/1999/xlink" x="0px" y="0px"
	 viewBox="0 0 896.6 862.7" style="enable-background:new 0 0 896.6 862.7;" xml:space="preserve">
<style type="text/css">
	.st0{fill:none;stroke:#007DDC;stroke-width:19;stroke-linecap:round;stroke-linejoin:round;stroke-miterlimit:10;}
</style>
<path class="st0" d="M301,102.5c0,0-230.1,84.1-224,349c6,261,238.3,352,325.7,358.7"/>
<path class="st0" d="M292.7,102.2c19.3,4,29.3-22,31.3-42s-9.3-50.7-9.3-50.7S293.2,29.7,284,46.8C274,65.5,273.3,98.2,292.7,102.2z
	"/>
<path class="st0" d="M187.3,73.5c0,0-26,37.3-24.7,60c1.3,22.7,20,40.7,26.7,40c6.7-0.7,26.7-24,22.7-49.3S187.3,73.5,187.3,73.5z"
	/>
<circle class="st0" cx="446.3" cy="513.6" r="21.7"/>
<line class="st0" x1="447.3" y1="302.8" x2="447.3" y2="484.8"/>
<path class="st0" d="M446,538.8v193.9h20c0,0,22.7-109.9,44.7-151.9c22-42,70.7-74.7,70.7-74.7l-66-204"/>
<line class="st0" x1="413.3" y1="305.5" x2="356" y2="483.5"/>
<polygon class="st0" points="334,258.8 555.3,258.8 537.3,301.5 356,301.5 "/>
<path class="st0" d="M375.3,304.2l-64.7,203.3c0,0,44,31.1,67.3,64.7c33.3,48,44.7,160.7,44.7,160.7h22.7V543.5"/>
<rect x="333.3" y="175.3" class="st0" width="222.7" height="82.7"/>
<path class="st0" d="M110.5,274c0,0,24-19.5,11-50s-37-45.5-37-45.5s-13.5,37-7,64.5S110.5,274,110.5,274z"/>
<path class="st0" d="M73.5,409.5c0,0,6.5-35-6.5-52s-46-33-46-33S17.5,361,29.5,386S73.5,409.5,73.5,409.5z"/>
<path class="st0" d="M149.7,676.5c1-2.3-7-32.3-33.3-44.7c-26.3-12.3-56.9-5.5-56.9-5.5s16.9,34,40.3,48.9
	C123.1,690,148.7,678.8,149.7,676.5z"/>
<path class="st0" d="M80.5,542.5c3.5-1.5,6.5-32-16.5-51S9.5,470,9.5,470s8.5,42.5,24,56.5S77,544,80.5,542.5z"/>
<path class="st0" d="M151,759.8c0,0,32-19.7,54.7-19c32.3,1,45.7,25.3,45.7,25.3s-5.3,21-39.3,21C177,787.2,151,759.8,151,759.8z"/>
<path class="st0" d="M373.3,811.2c-8.7-9.3-20.7-11.7-44.7-1.7s-41.3,41.3-41.3,41.3s47.7,7.3,67.3-4
	C371.5,837.2,382,820.5,373.3,811.2z"/>
<path class="st0" d="M595.6,102.5c0,0,230.1,84.1,224,349c-6,261-238.3,352-325.7,358.7"/>
<path class="st0" d="M604,102.2c-19.3,4-29.3-22-31.3-42S582,9.5,582,9.5s21.5,20.2,30.7,37.3C622.6,65.5,623.3,98.2,604,102.2z"/>
<path class="st0" d="M709.3,73.5c0,0,26,37.3,24.7,60s-20,40.7-26.7,40c-6.7-0.7-26.7-24-22.7-49.3S709.3,73.5,709.3,73.5z"/>
<path class="st0" d="M786.1,274c0,0-24-19.5-11-50s37-45.5,37-45.5s13.5,37,7,64.5S786.1,274,786.1,274z"/>
<path class="st0" d="M823.1,409.5c0,0-6.5-35,6.5-52s46-33,46-33s3.5,36.5-8.5,61.5S823.1,409.5,823.1,409.5z"/>
<path class="st0" d="M747,676.5c-1-2.3,7-32.3,33.3-44.7c26.3-12.3,56.9-5.5,56.9-5.5s-16.9,34-40.3,48.9
	C773.6,690,748,678.8,747,676.5z"/>
<path class="st0" d="M816.1,542.5c-3.5-1.5-6.5-32,16.5-51s54.5-21.5,54.5-21.5s-8.5,42.5-24,56.5S819.6,544,816.1,542.5z"/>
<path class="st0" d="M745.6,759.8c0,0-32-19.7-54.7-19c-32.3,1-45.7,25.3-45.7,25.3s5.3,21,39.3,21
	C719.6,787.2,745.6,759.8,745.6,759.8z"/>
<path class="st0" d="M523.3,811.2c8.7-9.3,20.7-11.7,44.7-1.7s41.3,41.3,41.3,41.3s-47.7,7.3-67.3-4
	C525.2,837.2,514.6,820.5,523.3,811.2z"/>
</svg>
