<!--?xml version="1.0" encoding="utf-8"?-->
<!-- Generator: Adobe Illustrator 20.1.0, SVG Export Plug-In . SVG Version: 6.00 Build 0)  -->
<svg version="1.1" id="text" xmlns="http://www.w3.org/2000/svg" xmlns:xlink="http://www.w3.org/1999/xlink" x="0px" y="0px" viewBox="0 0 1052.9 918.7" style="" xml:space="preserve">
<style type="text/css">
	.st0{fill:none;stroke:#007DDC;stroke-width:16;stroke-linecap:round;stroke-linejoin:round;stroke-miterlimit:10;}
</style>
<path class="st0 GmTfKbLk_0" d="M525.8,8L99.8,168L953.8,168Z"></path>
<path class="st0 GmTfKbLk_1" d="M223.1,168L526.5,55.3L825.1,166.7"></path>
<path class="st0 GmTfKbLk_2" d="M99.8,212L952.5,212"></path>
<path class="st0 GmTfKbLk_3" d="M149.8,353.3c0,0-48-3.3-48-48s36.7-50.7,44-50.7c7.3,0,141.7,0,149.3,0s52.7,5.3,52.7,47.3c0,51.3-52,52-52,52
	"></path>
<path class="st0 GmTfKbLk_4" d="M177.1,280.7L177.1,760.7"></path>
<path class="st0 GmTfKbLk_5" d="M223.8,280.7L223.8,760.7"></path>
<path class="st0 GmTfKbLk_6" d="M271.1,280.7L271.1,760.7"></path>
<path class="st0 GmTfKbLk_7" d="M452.5,353.3c0,0-48-3.3-48-48s36.7-50.7,44-50.7c7.3,0,141.7,0,149.3,0c7.7,0,52.7,5.3,52.7,47.3
	c0,51.3-52,52-52,52"></path>
<path class="st0 GmTfKbLk_8" d="M479.8,280.7L479.8,760.7"></path>
<path class="st0 GmTfKbLk_9" d="M526.5,280.7L526.5,760.7"></path>
<path class="st0 GmTfKbLk_10" d="M573.8,280.7L573.8,760.7"></path>
<path class="st0 GmTfKbLk_11" d="M753.5,353.3c0,0-48-3.3-48-48s36.7-50.7,44-50.7c7.3,0,141.7,0,149.3,0c7.7,0,52.7,5.3,52.7,47.3
	c0,51.3-52,52-52,52"></path>
<path class="st0 GmTfKbLk_12" d="M780.8,280.7L780.8,760.7"></path>
<path class="st0 GmTfKbLk_13" d="M827.5,280.7L827.5,760.7"></path>
<path class="st0 GmTfKbLk_14" d="M874.8,280.7L874.8,760.7"></path>
<path class="st0 GmTfKbLk_15" d="M113.1,810.3L113.1,765.7L938.5,765.7L938.5,811"></path>
<path class="st0 GmTfKbLk_16" d="M47.8,860.7L47.8,814.7L1002.5,814.7L1002.5,859.3"></path>
<path class="st0 GmTfKbLk_17" width="1036.9" height="48" d="M8 862.7 L1044.9 862.7 L1044.9 910.7 L8 910.7 Z"></path>
<style>.GmTfKbLk_0{stroke-dasharray:1766 1768;stroke-dashoffset:1767;animation:GmTfKbLk_draw 1333ms linear 0ms forwards;}.GmTfKbLk_1{stroke-dasharray:643 645;stroke-dashoffset:644;animation:GmTfKbLk_draw 1333ms linear 39ms forwards;}.GmTfKbLk_2{stroke-dasharray:853 855;stroke-dashoffset:854;animation:GmTfKbLk_draw 1333ms linear 78ms forwards;}.GmTfKbLk_3{stroke-dasharray:454 456;stroke-dashoffset:455;animation:GmTfKbLk_draw 1333ms linear 117ms forwards;}.GmTfKbLk_4{stroke-dasharray:480 482;stroke-dashoffset:481;animation:GmTfKbLk_draw 1333ms linear 156ms forwards;}.GmTfKbLk_5{stroke-dasharray:480 482;stroke-dashoffset:481;animation:GmTfKbLk_draw 1333ms linear 196ms forwards;}.GmTfKbLk_6{stroke-dasharray:480 482;stroke-dashoffset:481;animation:GmTfKbLk_draw 1333ms linear 235ms forwards;}.GmTfKbLk_7{stroke-dasharray:454 456;stroke-dashoffset:455;animation:GmTfKbLk_draw 1333ms linear 274ms forwards;}.GmTfKbLk_8{stroke-dasharray:480 482;stroke-dashoffset:481;animation:GmTfKbLk_draw 1333ms linear 313ms forwards;}.GmTfKbLk_9{stroke-dasharray:480 482;stroke-dashoffset:481;animation:GmTfKbLk_draw 1333ms linear 352ms forwards;}.GmTfKbLk_10{stroke-dasharray:480 482;stroke-dashoffset:481;animation:GmTfKbLk_draw 1333ms linear 392ms forwards;}.GmTfKbLk_11{stroke-dasharray:454 456;stroke-dashoffset:455;animation:GmTfKbLk_draw 1333ms linear 431ms forwards;}.GmTfKbLk_12{stroke-dasharray:480 482;stroke-dashoffset:481;animation:GmTfKbLk_draw 1333ms linear 470ms forwards;}.GmTfKbLk_13{stroke-dasharray:480 482;stroke-dashoffset:481;animation:GmTfKbLk_draw 1333ms linear 509ms forwards;}.GmTfKbLk_14{stroke-dasharray:480 482;stroke-dashoffset:481;animation:GmTfKbLk_draw 1333ms linear 549ms forwards;}.GmTfKbLk_15{stroke-dasharray:916 918;stroke-dashoffset:917;animation:GmTfKbLk_draw 1333ms linear 588ms forwards;}.GmTfKbLk_16{stroke-dasharray:1046 1048;stroke-dashoffset:1047;animation:GmTfKbLk_draw 1333ms linear 627ms forwards;}.GmTfKbLk_17{stroke-dasharray:2170 2172;stroke-dashoffset:2171;animation:GmTfKbLk_draw 1333ms linear 666ms forwards;}@keyframes GmTfKbLk_draw{100%{stroke-dashoffset:0;}}@keyframes GmTfKbLk_fade{0%{stroke-opacity:1;}93.54838709677419%{stroke-opacity:1;}100%{stroke-opacity:0;}}</style></svg>
