<?xml version="1.0" encoding="utf-8"?>
<!-- Generator: Adobe Illustrator 20.1.0, SVG Export Plug-In . SVG Version: 6.00 Build 0)  -->
<svg version="1.1" id="text" xmlns="http://www.w3.org/2000/svg" xmlns:xlink="http://www.w3.org/1999/xlink" x="0px" y="0px"
	 viewBox="0 0 1052.9 918.7" style="enable-background:new 0 0 1052.9 918.7;" xml:space="preserve">
<style type="text/css">
	.st0{fill:none;stroke:#007DDC;stroke-width:16;stroke-linecap:round;stroke-linejoin:round;stroke-miterlimit:10;}
</style>
<polygon class="st0" points="525.8,8 99.8,168 953.8,168 "/>
<polyline class="st0" points="223.1,168 526.5,55.3 825.1,166.7 "/>
<line class="st0" x1="99.8" y1="212" x2="952.5" y2="212"/>
<path class="st0" d="M149.8,353.3c0,0-48-3.3-48-48s36.7-50.7,44-50.7c7.3,0,141.7,0,149.3,0s52.7,5.3,52.7,47.3c0,51.3-52,52-52,52
	"/>
<line class="st0" x1="177.1" y1="280.7" x2="177.1" y2="760.7"/>
<line class="st0" x1="223.8" y1="280.7" x2="223.8" y2="760.7"/>
<line class="st0" x1="271.1" y1="280.7" x2="271.1" y2="760.7"/>
<path class="st0" d="M452.5,353.3c0,0-48-3.3-48-48s36.7-50.7,44-50.7c7.3,0,141.7,0,149.3,0c7.7,0,52.7,5.3,52.7,47.3
	c0,51.3-52,52-52,52"/>
<line class="st0" x1="479.8" y1="280.7" x2="479.8" y2="760.7"/>
<line class="st0" x1="526.5" y1="280.7" x2="526.5" y2="760.7"/>
<line class="st0" x1="573.8" y1="280.7" x2="573.8" y2="760.7"/>
<path class="st0" d="M753.5,353.3c0,0-48-3.3-48-48s36.7-50.7,44-50.7c7.3,0,141.7,0,149.3,0c7.7,0,52.7,5.3,52.7,47.3
	c0,51.3-52,52-52,52"/>
<line class="st0" x1="780.8" y1="280.7" x2="780.8" y2="760.7"/>
<line class="st0" x1="827.5" y1="280.7" x2="827.5" y2="760.7"/>
<line class="st0" x1="874.8" y1="280.7" x2="874.8" y2="760.7"/>
<polyline class="st0" points="113.1,810.3 113.1,765.7 938.5,765.7 938.5,811 "/>
<polyline class="st0" points="47.8,860.7 47.8,814.7 1002.5,814.7 1002.5,859.3 "/>
<rect x="8" y="862.7" class="st0" width="1036.9" height="48"/>
</svg>
