<?xml version="1.0" encoding="utf-8"?>
<!-- Generator: Adobe Illustrator 20.1.0, SVG Export Plug-In . SVG Version: 6.00 Build 0)  -->
<svg version="1.1" id="text" xmlns="http://www.w3.org/2000/svg" xmlns:xlink="http://www.w3.org/1999/xlink" x="0px" y="0px"
	 viewBox="0 0 786.9 789" style="enable-background:new 0 0 786.9 789;" xml:space="preserve">
<style type="text/css">
	.st0{fill:#007DDC;}
</style>
<g>
	<g>
		<g>
			<path class="st0" d="M671,343c-30.3,0-58.7-11.8-80.1-33.1c-15-15-23.4-35.5-22.9-56.3c0.4-18.9,8.2-36.1,21.8-48.5
				c12.2-11.2,27.5-17.3,43.1-17.3c2.1,0,4.2,0.1,6.3,0.3c18.5,1.9,35.5,12.5,47.9,29.8c6.9,9.6,4.7,23.1-4.9,30
				c-3.7,2.6-8,4-12.5,4c-6.9,0-13.4-3.3-17.5-9c-3.6-5.1-9.6-11.3-17.5-12.1c-5.4-0.6-11,1.5-15.9,6c-5,4.6-7.6,10.6-7.8,17.8
				c-0.2,8.9,3.7,18.2,10.3,24.9c13.3,13.3,30.9,20.6,49.7,20.6h0c18.8,0,36.5-7.3,49.7-20.6c27.4-27.4,27.4-72,0-99.5
				c-13.3-13.3-31-20.6-49.8-20.6c-6.6,0-13.3,0.9-19.7,2.8c-0.1,0-0.1,0-0.2,0.1c-0.3,0.1-0.5,0.1-0.7,0.2l-0.2,0
				c-0.3,0.1-0.6,0.1-0.9,0.2l-0.2,0c-0.3,0-0.5,0.1-0.8,0.1l-0.2,0c0,0-0.1,0-0.1,0c-0.2,0-0.5,0.1-0.7,0.1l-0.4,0
				c-0.2,0-0.4,0-0.6,0l-0.4,0c-0.2,0-0.3,0-0.4,0h-0.3c-0.1,0-0.3,0-0.4,0l-0.4,0c-0.3,0-0.5,0-0.7,0l-0.3,0c-0.2,0-0.5,0-0.8-0.1
				c0,0-0.2,0-0.2,0c-0.3,0-0.6-0.1-0.8-0.1c0,0-0.2,0-0.2,0c-0.3-0.1-0.6-0.1-0.8-0.2c0,0-0.2,0-0.2-0.1c-0.3-0.1-0.5-0.1-0.7-0.2
				c-0.1,0-0.1,0-0.2-0.1c-0.1,0-0.2,0-0.2-0.1c-0.2-0.1-0.4-0.1-0.6-0.2l-0.4-0.1c-0.2-0.1-0.4-0.1-0.6-0.2
				c-0.1-0.1-0.3-0.1-0.5-0.2l-0.4-0.2c-0.2-0.1-0.4-0.2-0.6-0.3c0,0-0.1-0.1-0.1-0.1c-0.3-0.2-0.6-0.3-0.8-0.4c0,0,0,0-0.1,0
				c0,0,0,0-0.1,0c-0.3-0.2-0.5-0.3-0.8-0.5c0,0,0,0,0,0l0,0c-0.6-0.4-1.2-0.7-1.7-1.2c0,0,0,0-0.1-0.1c-0.2-0.2-0.5-0.4-0.7-0.6
				c0,0-0.1-0.1-0.1-0.1c-0.2-0.2-0.4-0.3-0.6-0.5l-0.2-0.2c-0.2-0.2-0.4-0.3-0.5-0.5c-0.1-0.1-0.2-0.2-0.3-0.3c0,0-0.1-0.1-0.1-0.1
				c-0.1-0.1-0.2-0.2-0.3-0.3c-0.2-0.2-0.3-0.4-0.5-0.6c0,0-0.1-0.1-0.2-0.2c-0.1-0.2-0.3-0.4-0.5-0.6c0-0.1-0.1-0.1-0.1-0.2
				c-0.2-0.2-0.4-0.5-0.5-0.7c0,0,0-0.1-0.1-0.1c-0.2-0.3-0.3-0.5-0.5-0.8c0-0.1-0.1-0.1-0.1-0.2c-0.1-0.2-0.3-0.4-0.4-0.7
				c0,0,0,0,0-0.1l-0.1-0.1c-0.1-0.3-0.3-0.5-0.4-0.7L626,151c-0.1-0.3-0.2-0.5-0.3-0.7l-0.2-0.4c-0.1-0.2-0.1-0.4-0.2-0.5
				c-0.1-0.1-0.1-0.3-0.2-0.5l-0.1-0.4c-0.1-0.3-0.2-0.5-0.2-0.7c0-0.1,0-0.2-0.1-0.2c0-0.1,0-0.1,0-0.2c-0.1-0.3-0.1-0.5-0.2-0.8
				c0,0,0-0.1,0-0.1c0-0.1,0,0,0-0.1c-0.1-0.3-0.1-0.6-0.2-0.8l0-0.2c-0.1-0.3-0.1-0.6-0.1-0.9l0-0.2c0-0.3-0.1-0.5-0.1-0.8l0-0.3
				c0-0.3,0-0.5,0-0.8c0-0.1,0-0.2,0-0.4c0-0.2,0-0.3,0-0.5l8-0.1l-8,0c0-0.2,0-0.3,0-0.5c0-0.1,0-0.3,0-0.4c0-0.2,0-0.4,0-0.6
				l0-0.3c0-0.3,0.1-0.5,0.1-0.8c0,0,0-0.2,0-0.2c0-0.3,0.1-0.6,0.1-0.9c0-0.1,0-0.1,0-0.2c0.1-0.3,0.1-0.6,0.2-0.9
				c0,0,0-0.2,0.1-0.2c0.1-0.3,0.1-0.5,0.2-0.7c0-0.1,0-0.1,0-0.2c7.2-24.7,0.4-51.3-17.8-69.5C593.6,53,576,45.6,557.1,45.6
				c-18.8,0-36.5,7.3-49.7,20.6c-27.4,27.4-27.4,72,0,99.5c6.6,6.6,16,10.5,24.9,10.3c7.2-0.2,13.2-2.8,17.8-7.8
				c4.4-4.9,6.6-10.5,6-15.9c-0.8-7.8-7-13.8-12.1-17.5c-9.6-6.9-11.8-20.4-4.9-30c4-5.6,10.6-9,17.5-9c4.5,0,8.8,1.4,12.5,4
				c17.3,12.4,27.9,29.4,29.8,47.9c1.9,17.8-4.2,35.3-17,49.3c-12.4,13.6-29.7,21.4-48.5,21.8C512.6,219.4,492,211,477,196
				c-21.4-21.4-33.1-49.8-33.1-80.1c0-30.3,11.8-58.7,33.1-80.1c21.4-21.4,49.8-33.1,80.1-33.1c30.3,0,58.7,11.8,80.1,33.1
				c21.5,21.5,33.3,50.5,33.2,80.7c0.2,0,0.4,0,0.5,0c30.3,0,58.7,11.8,80.1,33.2c21.4,21.4,33.1,49.8,33.1,80.1
				c0,30.3-11.8,58.7-33.1,80.1C729.7,331.3,701.3,343,671,343z M632.8,203.8c-11.7,0-22.8,4.5-32.3,13.1
				c-10.4,9.5-16.2,22.6-16.6,37.1c-0.4,16.4,6.3,32.6,18.2,44.6C620.5,316.9,645,327,671,327c26,0,50.4-10.1,68.8-28.4
				c18.3-18.3,28.4-42.8,28.4-68.8c0-26-10.1-50.4-28.4-68.8c-18.4-18.4-42.8-28.5-68.8-28.5c-2.7,0-5.5,0.1-8.2,0.3
				c-2.3,0.2-4.7-0.6-6.3-2.3c-1.7-1.7-2.5-4-2.3-6.3c2.4-28.7-7.8-56.7-28.1-77.1c-18.3-18.3-42.8-28.4-68.8-28.4
				c-26,0-50.4,10.1-68.8,28.4c-18.3,18.3-28.4,42.8-28.4,68.8c0,26,10.1,50.4,28.4,68.8c11.9,11.9,28.2,18.6,44.6,18.2
				c14.5-0.3,27.6-6.2,37.1-16.6c9.7-10.6,14.3-23.7,12.9-36.9c-1.5-13.9-9.7-26.8-23.2-36.5c-1.2-0.8-2.4-1-3.2-1
				c-1.8,0-3.4,0.8-4.5,2.3c-1.8,2.5-1.2,5.9,1.3,7.6c11.1,8,17.6,17.9,18.7,28.8c1,10-2.5,20.1-10.1,28.4
				c-9.5,10.4-21.2,12.8-29.2,13c-13.2,0.3-26.9-5.4-36.6-15c-33.7-33.7-33.7-88.4,0-122.1c16.3-16.3,38-25.2,61-25.2
				c23.1,0,44.8,9,61,25.2c22.2,22.2,30.6,54.9,21.9,85.1c0,0.1,0,0.1,0,0.2l-0.1,0.2c0,0,0,0.1,0,0.1l0,0.2l0,0c0,0,0,0.1,0,0.1
				l0,0.2c0,0,0,0.1,0,0.1l0,0.2l-8-0.6l8,0.7l0,0.1c0,0,0,0.1,0,0.1c0,0,0,0.1,0,0.1l0.1,1.3l0.1,0.2c0,0,0,0,0,0c0,0,0,0,0,0
				l0.5,1.1l0,0l0.1,0.2c0,0,0,0.1,0.1,0.1c0,0,0,0,0.1,0.1c0,0,0,0,0,0c0,0.1,0.1,0.1,0.1,0.2c0,0,0,0,0,0l0.6,0.7
				c0,0,0.1,0.1,0.1,0.1l0.1,0.1c0,0,0.1,0.1,0.1,0.1c0,0,0.1,0.1,0.1,0.1c0,0,0,0,0,0c0.1,0.1,0.3,0.2,0.4,0.3c0,0,0,0,0,0
				c0.1,0,0.1,0.1,0.2,0.1c0,0,0.1,0,0.1,0l1,0.4c0,0,0,0,0,0c0,0,0,0,0.1,0l0.2,0c0,0,0.1,0,0.1,0l0.2,0c0,0,0,0,0,0l0.2,0
				c0,0,0.1,0,0.1,0l0.1,0c0,0,0.1,0,0.2,0l0.5,0c0,0,0.1,0,0.1,0l1-0.1l0.3-0.1c0,0,0.1,0,0.1,0c7.8-2.3,15.9-3.4,24-3.4
				c23.1,0,44.8,9,61.1,25.3c33.7,33.7,33.7,88.4,0,122.1c-16.3,16.3-38,25.2-61,25.2h0c-23.1,0-44.8-9-61-25.2
				c-9.7-9.7-15.3-23.4-15-36.6c0.2-8.1,2.6-19.7,13-29.2c8.2-7.5,18.5-11.1,28.4-10.1c10.9,1.1,20.8,7.6,28.8,18.7
				c1,1.5,2.7,2.3,4.5,2.3c0.8,0,2-0.2,3.2-1c2.5-1.8,3-5.2,1.3-7.6c-9.7-13.5-22.7-21.8-36.5-23.2
				C635.9,203.9,634.3,203.8,632.8,203.8z"/>
			<path class="st0" d="M705.3,136.6c-2.1,0-4.1-0.1-6.2-0.4c-4.4-0.5-7.5-4.5-7.1-8.8c0.5-4.4,4.5-7.5,8.8-7.1
				c11.8,1.3,23.4-2.7,31.8-11.1c7.3-7.3,11.4-17.1,11.4-27.5c0-10.4-4-20.1-11.4-27.5c-7.3-7.3-17.1-11.4-27.5-11.4
				c-10.4,0-20.1,4-27.5,11.4c-8.5,8.5-12.5,20.1-11.1,32c0.5,4.4-2.6,8.4-7,8.9c-4.4,0.5-8.4-2.6-8.9-7c-2-16.8,3.7-33.3,15.7-45.2
				c10.3-10.3,24.1-16,38.8-16c14.7,0,28.4,5.7,38.8,16c10.3,10.3,16,24.1,16,38.8c0,14.7-5.7,28.4-16,38.8
				C733.6,130.9,719.7,136.6,705.3,136.6z"/>
			<path class="st0" d="M737.8,156c-3,0-5.8-1.6-7.2-4.5c-2-4-0.3-8.8,3.6-10.7c6.5-3.2,12.3-7.4,17.5-12.5
				c25.6-25.6,25.6-67.4,0-93c-25.6-25.6-67.4-25.6-93,0c-5.2,5.2-9.4,11.1-12.6,17.5c-2,4-6.7,5.6-10.7,3.6c-4-2-5.6-6.7-3.6-10.7
				c4-8,9.2-15.4,15.6-21.8C662.8,8.5,683.3,0,705.2,0c21.9,0,42.4,8.5,57.8,23.9c31.9,31.9,31.9,83.8,0,115.7
				c-6.4,6.4-13.7,11.6-21.7,15.6C740.2,155.7,739,156,737.8,156z"/>
		</g>
		<path class="st0" d="M575.3,273.2c-0.6,0-1.2-0.1-1.8-0.2c-3.2-0.7-6.4-1.4-9.5-1.9c-14-2.4-26.8-2.8-38-1
			c-2.5,0.4-5.1-0.5-6.9-2.3c-1.8-1.8-2.6-4.3-2.3-6.9c1.7-11.2,1.4-24-1-38c-0.5-3.2-1.2-6.5-2-9.8c-1-4.3,1.7-8.6,6-9.6
			c4.3-1,8.6,1.7,9.6,6c0.8,3.6,1.6,7.2,2.2,10.7c2,11.7,2.7,22.8,2.1,33c10.2-0.6,21.2,0.1,33,2.1c3.4,0.6,6.9,1.3,10.3,2.1
			c4.3,1,7,5.3,6,9.6C582.2,270.7,578.9,273.2,575.3,273.2z"/>
		<path class="st0" d="M420.6,401c-2,0-4.1-0.8-5.7-2.3c-3.1-3.1-3.1-8.2,0-11.3l94.5-94.5c0.5-0.5,1-0.9,1.6-1.3
			c15.6-9.1,33.6-12.6,50.6-9.7c17.4,2.9,30.9,8.7,32.4,9.3c4,1.7,5.9,6.4,4.2,10.4c-1.7,4.1-6.4,6-10.5,4.3c0,0-0.1-0.1-0.2-0.1
			c-1.3-0.6-13.1-5.6-28.6-8.2c-13-2.2-26.8,0.4-39,7.3l-93.8,93.8C424.6,400.2,422.6,401,420.6,401z"/>
		<path class="st0" d="M123,693.9c-1.9,0-3.8-0.2-5.9-0.7c-5.9-1.3-11.6-4.2-15.4-8c-3.7-3.7-6.7-9.5-8-15.4
			c-1.6-7.7-0.1-14.4,4.2-18.7L360,389c3.1-3.1,8.2-3.1,11.3,0c3.1,3.1,3.1,8.2,0,11.3l-262,262c-1,1.7,0.7,8.5,3.7,11.6
			c3.1,3.1,9.8,4.7,11.6,3.7l262.8-262.8c3.1-3.1,8.2-3.1,11.3,0c3.1,3.1,3.1,8.2,0,11.3L135.8,689
			C132.6,692.2,128.2,693.9,123,693.9z"/>
		<path class="st0" d="M394.4,374c-2,0-4.1-0.8-5.7-2.3c-3.1-3.1-3.1-8.2,0-11.3l93.4-93.4c6.8-12.1,9.4-26.5,7.2-39.5
			c-2.6-15.2-7.9-26.6-8.4-27.9c-0.1-0.1-0.1-0.3-0.2-0.4c-1.7-4.1,0.2-8.8,4.3-10.5c4-1.7,8.6,0.2,10.3,4.1
			c1.2,2.5,6.9,15.2,9.7,32c3,17.2-0.5,35.4-9.6,51.1c-0.3,0.6-0.8,1.1-1.3,1.6L400,371.6C398.5,373.2,396.4,374,394.4,374z"/>
		<path class="st0" d="M160.7,702.6c-2,0-4.1-0.8-5.7-2.3l-16.9-16.9c-3.1-3.1-3.1-8.2,0-11.3c3.1-3.1,8.2-3.1,11.3,0l16.9,16.9
			c3.1,3.1,3.1,8.2,0,11.3C164.8,701.8,162.7,702.6,160.7,702.6z M259.4,603.9c-2,0-4.1-0.8-5.7-2.3l-16.9-16.9
			c-3.1-3.1-3.1-8.2,0-11.3c3.1-3.1,8.2-3.1,11.3,0l16.9,16.9c3.1,3.1,3.1,8.2,0,11.3C263.5,603.1,261.5,603.9,259.4,603.9z"/>
		<path class="st0" d="M214.3,789c-5.7,0-11.1-2.2-15.2-6.3l-52.3-52.3c-4.1-4.1-6.3-9.4-6.3-15.2c0-5.7,2.2-11.1,6.3-15.2l118-118
			c8.4-8.4,22-8.4,30.4,0l52.3,52.3c4.1,4.1,6.3,9.4,6.3,15.2s-2.2,11.1-6.3,15.2c-4.1,4.1-9.4,6.3-15.2,6.3l0,0
			c-5.7,0-11.1-2.2-15.2-6.3l-4.7-4.7l-87.6,87.6l4.7,4.7c8.4,8.4,8.4,22,0,30.4C225.5,786.7,220.1,789,214.3,789z M280,591.7
			c-1.4,0-2.8,0.5-3.9,1.6l-118,118c-1,1-1.6,2.4-1.6,3.9c0,1.5,0.6,2.8,1.6,3.9l52.3,52.3c2.1,2.1,5.6,2.1,7.7,0
			c2.1-2.1,2.1-5.6,0-7.7l-10.3-10.3c-3.1-3.1-3.1-8.2,0-11.3l98.9-98.9c3.1-3.1,8.2-3.1,11.3,0l10.3,10.3c2.1,2.1,5.6,2.1,7.7,0
			c2.1-2.1,2.1-5.6,0-7.7l-52.3-52.3C282.8,592.3,281.4,591.7,280,591.7z M187.4,729.5c-2,0-4.1-0.8-5.7-2.3
			c-3.1-3.1-3.1-8.2,0-11.3l98.9-98.9c3.1-3.1,8.2-3.1,11.3,0c3.1,3.1,3.1,8.2,0,11.3l-98.9,98.9
			C191.5,728.7,189.4,729.5,187.4,729.5z"/>
	</g>
	<g>
		<g>
			<path class="st0" d="M115.9,343c-30.3,0-58.7-11.8-80.1-33.1c-44.2-44.2-44.2-116,0-160.2c21.5-21.5,50.2-33.3,80.7-33.2
				c-0.2-30.2,11.7-59.2,33.2-80.7c21.4-21.4,49.8-33.1,80.1-33.1s58.7,11.8,80.1,33.1c44.2,44.2,44.2,116,0,160.2
				c-15,15-35.6,23.4-56.3,22.9c-18.9-0.4-36.1-8.2-48.5-21.8c-12.8-14-18.9-31.6-17-49.3c1.9-18.5,12.5-35.5,29.8-47.9
				c3.7-2.6,8-4,12.5-4c6.9,0,13.4,3.3,17.5,9c6.9,9.6,4.7,23.1-4.9,30c-5.1,3.6-11.3,9.6-12.1,17.5c-0.6,5.4,1.6,11.1,6,15.9
				c4.6,5,10.6,7.6,17.8,7.8c8.9,0.2,18.3-3.7,24.9-10.3c27.4-27.4,27.4-72,0-99.5c-13.3-13.3-30.9-20.6-49.7-20.6
				s-36.5,7.3-49.7,20.6c-18.1,18.1-25,44.8-17.8,69.4c0,0.1,0,0.1,0.1,0.2c0.1,0.2,0.1,0.5,0.2,0.7l0,0.2c0.1,0.3,0.1,0.6,0.2,0.9
				l0,0.2c0,0.2,0.1,0.5,0.1,0.8l0,0.3c0,0.3,0.1,0.5,0.1,0.7l0,0.3c0,0.2,0,0.4,0,0.6c0,0.2,0,0.4,0,0.5c0,0.1,0,0.3,0,0.4
				c0,0.2,0,0.4,0,0.6c0,0.1,0,0.3,0,0.4c0,0.2,0,0.5,0,0.7l0,0.3c0,0.3-0.1,0.6-0.1,0.8c0,0,0,0.2,0,0.2c0,0.3-0.1,0.6-0.1,0.8
				c0,0,0,0.2,0,0.2c0,0.2-0.1,0.5-0.2,0.8l-0.1,0.3c0,0.2-0.1,0.4-0.2,0.7c0,0,0,0.1,0,0.1c0,0.1,0,0.1-0.1,0.2l0,0.1
				c-0.1,0.2-0.1,0.5-0.2,0.7l-0.1,0.3c-0.1,0.2-0.2,0.4-0.2,0.6c-0.1,0.2-0.1,0.3-0.2,0.5l-0.2,0.4c-0.1,0.2-0.2,0.4-0.3,0.6
				l-0.1,0.2c-0.1,0.3-0.3,0.5-0.4,0.8c0,0,0,0.1-0.1,0.1c0,0,0,0,0,0c-0.1,0.3-0.3,0.5-0.5,0.8c-0.2,0.3-0.4,0.6-0.6,0.9
				c0,0,0,0.1-0.1,0.1c-0.2,0.3-0.4,0.5-0.5,0.7c0,0-0.1,0.1-0.1,0.1v0c-0.2,0.3-0.4,0.5-0.5,0.7c0,0-0.1,0.2-0.2,0.2
				c-0.1,0.2-0.3,0.4-0.5,0.6l-0.3,0.3c-0.2,0.2-0.3,0.3-0.4,0.5c-0.1,0.1-0.3,0.3-0.5,0.4l-0.3,0.2c-0.2,0.2-0.4,0.3-0.6,0.5
				c0,0-0.1,0.1-0.1,0.1c-0.2,0.2-0.5,0.4-0.7,0.6c0,0,0,0-0.1,0l0,0c-0.5,0.4-1.1,0.8-1.7,1.1c0,0,0,0-0.1,0l0,0
				c-0.3,0.2-0.5,0.3-0.8,0.5c0,0-0.1,0.1-0.1,0.1c-0.2,0.1-0.5,0.2-0.7,0.4L151,161c-0.3,0.1-0.5,0.2-0.7,0.3l-0.3,0.1
				c-0.2,0.1-0.4,0.2-0.6,0.2c-0.2,0.1-0.3,0.1-0.5,0.2l-0.4,0.1c-0.2,0.1-0.5,0.2-0.7,0.2c-0.1,0-0.2,0.1-0.3,0.1
				c-0.1,0-0.1,0-0.2,0c-0.3,0.1-0.5,0.1-0.7,0.2l-0.2,0.1c-0.2,0.1-0.5,0.1-0.8,0.2l-0.2,0c-0.3,0-0.5,0.1-0.8,0.1l-0.2,0
				c-0.3,0-0.5,0.1-0.8,0.1l-0.3,0c-0.2,0-0.5,0-0.7,0l-0.4,0c-0.1,0-0.3,0-0.4,0h-0.1l-0.1-8v8c-0.1,0-0.3,0-0.4,0l-0.4,0
				c-0.3,0-0.5,0-0.7,0l-0.3,0c-0.3,0-0.5-0.1-0.8-0.1c0,0-0.1,0-0.1,0c0,0-0.1,0-0.1,0c-0.3,0-0.6-0.1-0.8-0.1c0,0-0.2,0-0.2,0
				c-0.3-0.1-0.6-0.1-0.9-0.2l-0.3-0.1c-0.2,0-0.4-0.1-0.7-0.2c-0.1,0-0.2,0-0.2-0.1c-6.4-1.8-13-2.8-19.6-2.8
				c-18.8,0-36.5,7.3-49.8,20.6C53,193.3,45.7,211,45.7,229.8c0,18.8,7.3,36.5,20.6,49.7c13.3,13.3,30.9,20.6,49.7,20.6
				s36.5-7.3,49.7-20.6c6.7-6.7,10.6-16,10.3-24.9c-0.2-7.2-2.8-13.2-7.8-17.8c-4.9-4.5-10.5-6.6-15.9-6c-7.8,0.8-13.8,7-17.5,12.1
				c-4,5.6-10.6,9-17.5,9c-4.5,0-8.8-1.4-12.5-4c-9.6-6.9-11.8-20.3-4.9-30c12.4-17.3,29.4-27.9,47.9-29.8c2.1-0.2,4.2-0.3,6.3-0.3
				c15.5,0,30.8,6.2,43.1,17.3c13.6,12.4,21.4,29.7,21.8,48.5c0.5,20.7-7.9,41.2-22.9,56.3C174.7,331.3,146.2,343,115.9,343z
				 M116,132.5c-26,0-50.4,10.1-68.8,28.5c-37.9,37.9-37.9,99.6,0,137.6c18.3,18.3,42.8,28.4,68.8,28.4c26,0,50.4-10.1,68.8-28.4
				c12-12,18.6-28.2,18.2-44.6c-0.3-14.5-6.2-27.6-16.6-37.1c-9.4-8.6-20.6-13.1-32.3-13.1c-1.5,0-3.1,0.1-4.6,0.2
				c-13.9,1.5-26.8,9.7-36.5,23.2c-1.8,2.5-1.2,5.9,1.3,7.6c1.2,0.8,2.4,1,3.2,1c1.8,0,3.4-0.8,4.5-2.3c8-11.1,17.9-17.6,28.8-18.7
				c9.9-1,20.2,2.6,28.4,10.1c10.4,9.5,12.8,21.2,13,29.2c0.3,13.2-5.3,26.9-15,36.6c-16.3,16.3-38,25.2-61,25.2s-44.8-9-61-25.2
				c-33.7-33.7-33.7-88.4,0-122.1c16.3-16.3,38-25.3,61.1-25.3c8.1,0,16.2,1.1,24,3.4c0.1,0,0.1,0,0.2,0.1l0.7,0.1c0,0,0,0,0.1,0
				l0.2,0c0,0,0.1,0,0.1,0l0.1,0c0,0,0.1,0,0.1,0l0.1,0l0.1,8v-8c0,0,0.1,0,0.1,0l1.2-0.2c0,0,0,0,0,0c0,0,0.1,0,0.1,0l1-0.4
				c0.1,0,0.1-0.1,0.2-0.1c0,0,0,0,0,0c0.1-0.1,0.3-0.2,0.4-0.3c0,0,0,0,0,0l0,0c0.1,0,0.1-0.1,0.2-0.1c0,0,0.1-0.1,0.1-0.1l0.3-0.3
				c0,0,0.1-0.1,0.1-0.1l0.2-0.2c0,0,0,0,0-0.1l0.1-0.2c0,0,0,0,0,0c0-0.1,0.1-0.1,0.1-0.2c0,0,0,0,0,0c0-0.1,0.1-0.1,0.1-0.2
				c0,0,0,0,0,0l0.1-0.2c0,0,0-0.1,0.1-0.1l0.4-1c0,0,0,0,0,0l0.1-0.2c0,0,0,0,0,0l0.1-0.2c0,0,0,0,0,0l0-0.2c0,0,0-0.1,0-0.1l0-0.1
				c0,0,0-0.1,0-0.1l0-0.1c0,0,0-0.1,0-0.1l0-0.1c0,0,0-0.1,0-0.1l-0.1-0.9l-0.1-0.5c0,0,0-0.1,0-0.1c0,0,0,0,0,0
				c-8.8-30.2-0.4-62.8,21.9-85.1c16.3-16.3,38-25.2,61-25.2s44.8,9,61,25.2c33.7,33.7,33.7,88.4,0,122.1
				c-9.7,9.7-23.4,15.3-36.6,15c-8.1-0.2-19.7-2.6-29.2-13c-7.6-8.3-11.1-18.4-10.1-28.4c1.1-10.9,7.6-20.8,18.7-28.8
				c2.5-1.8,3-5.2,1.3-7.6c-1-1.5-2.7-2.3-4.5-2.3c-0.8,0-2,0.2-3.2,1c-13.5,9.7-21.8,22.7-23.2,36.5c-1.4,13.2,3.2,26.3,12.9,36.9
				c9.5,10.4,22.6,16.2,37.1,16.6c16.4,0.4,32.7-6.3,44.6-18.2c37.9-37.9,37.9-99.6,0-137.6c-18.3-18.3-42.8-28.4-68.8-28.4
				S179.3,28.8,161,47.2c-20.3,20.3-30.6,48.4-28.1,77.1c0.2,2.3-0.6,4.7-2.3,6.3c-1.7,1.7-4,2.5-6.3,2.3
				C121.5,132.6,118.7,132.5,116,132.5z"/>
			<path class="st0" d="M81.7,136.6c-14.5,0-28.3-5.7-38.7-16.1C21.6,99.1,21.6,64.4,43,43c10.3-10.3,24.1-16,38.8-16h0
				c14.7,0,28.4,5.7,38.8,16c11.9,11.9,17.7,28.4,15.7,45.2c-0.5,4.4-4.5,7.5-8.9,7c-4.4-0.5-7.5-4.5-7-8.9
				c1.4-11.9-2.7-23.6-11.1-32c-7.3-7.3-17.1-11.4-27.5-11.4c-10.4,0-20.1,4-27.5,11.4c-15.1,15.1-15.1,39.8,0,54.9
				c8.4,8.4,20,12.5,31.8,11.1c4.4-0.5,8.4,2.7,8.8,7.1c0.5,4.4-2.7,8.3-7.1,8.8C85.8,136.5,83.7,136.6,81.7,136.6z"/>
			<path class="st0" d="M49.2,156c-1.2,0-2.4-0.3-3.5-0.8c-8-4-15.3-9.2-21.7-15.6C8.5,124.2,0,103.6,0,81.8
				c0-21.9,8.5-42.4,23.9-57.8C55.8-8,107.7-8,139.6,23.9c6.4,6.4,11.7,13.7,15.6,21.8c2,4,0.3,8.8-3.6,10.7c-4,2-8.8,0.3-10.7-3.6
				c-3.2-6.5-7.4-12.4-12.6-17.5c-25.6-25.6-67.4-25.6-93,0C22.8,47.6,16,64.2,16,81.8c0,17.6,6.8,34.1,19.2,46.5
				c5.1,5.1,11,9.4,17.5,12.5c4,2,5.6,6.8,3.6,10.7C55,154.4,52.1,156,49.2,156z"/>
		</g>
		<path class="st0" d="M211.7,273.2c-3.6,0-6.9-2.5-7.8-6.2c-1-4.3,1.7-8.6,6-9.6c3.5-0.8,7-1.5,10.3-2.1c11.7-2,22.8-2.7,33-2.1
			c-0.6-10.2,0.1-21.2,2.1-33c0.6-3.5,1.3-7.1,2.2-10.7c1-4.3,5.3-7,9.6-6c4.3,1,7,5.3,6,9.6c-0.8,3.3-1.4,6.6-2,9.8
			c-2.4,14-2.8,26.8-1,38c0.4,2.5-0.5,5.1-2.3,6.9c-1.8,1.8-4.4,2.6-6.9,2.3c-11.2-1.7-24-1.4-38,1c-3.1,0.5-6.3,1.2-9.5,1.9
			C212.9,273.1,212.3,273.2,211.7,273.2z"/>
		<path class="st0" d="M664,693.9c-5.2,0-9.6-1.7-12.9-4.9L267,304.9c-12.2-6.9-26-9.4-39-7.3c-15.5,2.6-27.3,7.6-28.6,8.2
			c0,0-0.1,0.1-0.2,0.1c-4.1,1.7-8.8-0.2-10.5-4.3c-1.7-4,0.2-8.7,4.2-10.4c1.5-0.7,15-6.4,32.4-9.3c17-2.8,34.9,0.6,50.6,9.7
			c0.6,0.3,1.1,0.8,1.6,1.3l384.8,384.8c1.7,1,8.5-0.7,11.6-3.7c3.1-3.1,4.7-9.8,3.7-11.5L292.8,277.5c-0.5-0.5-0.9-1-1.3-1.6
			c-9.2-15.7-12.6-33.9-9.6-51.1c2.9-16.9,8.6-29.6,9.7-32c1.8-3.9,6.3-5.7,10.3-4.1c4.1,1.7,6,6.4,4.3,10.5c0,0.1-0.1,0.3-0.2,0.4
			c-0.6,1.3-5.8,12.7-8.4,27.9c-2.2,13,0.4,27.4,7.2,39.5L689,651.1c4.4,4.4,5.9,11,4.2,18.7c-1.3,5.9-4.2,11.6-8,15.4
			c-3.7,3.7-9.5,6.7-15.4,8C667.8,693.7,665.8,693.9,664,693.9z"/>
		<path class="st0" d="M626.3,702.6c-2,0-4.1-0.8-5.7-2.3c-3.1-3.1-3.1-8.2,0-11.3l16.9-16.9c3.1-3.1,8.2-3.1,11.3,0
			c3.1,3.1,3.1,8.2,0,11.3l-16.9,16.9C630.3,701.8,628.3,702.6,626.3,702.6z M527.5,603.9c-2,0-4.1-0.8-5.7-2.3
			c-3.1-3.1-3.1-8.2,0-11.3l16.9-16.9c3.1-3.1,8.2-3.1,11.3,0c3.1,3.1,3.1,8.2,0,11.3l-16.9,16.9
			C531.6,603.1,529.6,603.9,527.5,603.9z"/>
		<path class="st0" d="M572.6,789c-5.7,0-11.1-2.2-15.2-6.3c-8.4-8.4-8.4-22,0-30.4l0,0l4.7-4.7L474.5,660l-4.7,4.7
			c-8.4,8.4-22,8.4-30.4,0c-4.1-4.1-6.3-9.4-6.3-15.2s2.2-11.1,6.3-15.2l52.3-52.3c8.4-8.4,22-8.4,30.4,0l118,118
			c4.1,4.1,6.3,9.4,6.3,15.2c0,5.7-2.2,11.1-6.3,15.2l-52.3,52.3C583.7,786.7,578.3,789,572.6,789z M568.7,763.6
			c-2.1,2.1-2.1,5.6,0,7.7c1,1,2.4,1.6,3.9,1.6c1.5,0,2.8-0.6,3.9-1.6l52.3-52.3c1-1,1.6-2.4,1.6-3.9c0-1.5-0.6-2.8-1.6-3.9
			l-118-118c-2.1-2.1-5.6-2.1-7.7,0l-52.3,52.3c-1,1-1.6,2.4-1.6,3.9s0.6,2.8,1.6,3.9c2.1,2.1,5.6,2.1,7.7,0l10.3-10.3
			c1.5-1.5,3.5-2.3,5.7-2.3c2.1,0,4.2,0.8,5.7,2.3L579,742c3.1,3.1,3.1,8.2,0,11.3L568.7,763.6z M599.5,729.5c-2,0-4.1-0.8-5.7-2.3
			L495,628.2c-3.1-3.1-3.1-8.2,0-11.3c3.1-3.1,8.2-3.1,11.3,0l98.9,98.9c3.1,3.1,3.1,8.2,0,11.3
			C603.6,728.7,601.6,729.5,599.5,729.5z"/>
	</g>
</g>
</svg>
