<?xml version="1.0" encoding="utf-8"?>
<!-- Generator: Adobe Illustrator 20.1.0, SVG Export Plug-In . SVG Version: 6.00 Build 0)  -->
<svg version="1.1" id="text" xmlns="http://www.w3.org/2000/svg" xmlns:xlink="http://www.w3.org/1999/xlink" x="0px" y="0px"
	 viewBox="0 0 892.2 864.9" style="enable-background:new 0 0 892.2 864.9;" xml:space="preserve">
<style type="text/css">
	.st0{fill:#007DDC;}
</style>
<g>
	<g>
		<g>
			<path class="st0" d="M453.6,743.5c-2.5,0-4.9-1-6.7-2.8c-0.3-0.3-0.5-0.5-0.7-0.8c-1.7,2.2-4.4,3.6-7.5,3.6h-14.9
				c-5,0-9.1-3.8-9.5-8.8c-14.1-179.2-106-217.2-107-217.5c-4.7-1.8-7.1-7-5.6-11.7l65.1-204.8c1.3-3.9,4.9-6.6,9.1-6.6l140.4,0
				c4.1,0,7.8,2.7,9.1,6.6l65.1,204.8c1.5,4.8-0.9,9.9-5.6,11.7c-8,3.2-28.3,15.9-47.9,40.9c-41.4,52.6-55,125.1-59,176.7
				c-0.4,4.9-4.5,8.8-9.5,8.8L453.6,743.5z M322.3,503.5c10,5.7,28.1,18,46.9,41.5c16,19.9,29.3,44,39.6,71.4
				c9.1,24.2,15.9,51.2,20.3,80.6l0-156.1c-8.9-5.7-14.5-15.6-14.5-26.4c0-8.4,3.3-16.3,9.2-22.2c5.9-5.9,13.8-9.2,22.2-9.2
				c17.3,0,31.4,14.1,31.4,31.4c0,10.8-5.6,20.7-14.5,26.4v156.1c4.4-29.3,11.2-56.3,20.3-80.6c10.3-27.4,23.7-51.4,39.6-71.4
				c18.8-23.5,36.9-35.9,46.9-41.5L509.4,313l-21.9,0l-33.9,0l-70.7,0L322.3,503.5z M446.1,502c-3.3,0-6.4,1.3-8.8,3.6
				c-2.3,2.3-3.6,5.5-3.6,8.8c0,5.2,3.3,9.9,8.2,11.7c1.7,0.6,3.1,1.7,4.2,3c1.1-1.4,2.5-2.4,4.2-3c4.9-1.8,8.2-6.5,8.2-11.7
				C458.5,507.6,453,502,446.1,502z"/>
			<path class="st0" d="M438.7,743.5h-14.9c-5,0-9.1-3.8-9.5-8.8c-4-51.5-17.6-124-59-176.7c-19.7-25-40-37.7-48-40.9
				c-4.6-1.9-7.1-7-5.6-11.7l65.1-204.8c1.3-3.9,4.9-6.6,9.1-6.6l74.2,0c2.5,0,4.9,1,6.7,2.8c1.8,1.8,2.8,4.2,2.8,6.7l0,189.4
				c0,2.8-1.2,5.5-3.4,7.3c-2.2,1.8-5,2.6-7.8,2.1c-0.8-0.1-1.5-0.2-2.2-0.2c-3.3,0-6.4,1.3-8.8,3.6c-2.3,2.3-3.6,5.5-3.6,8.8
				c0,5.2,3.3,9.9,8.2,11.7c3.8,1.4,6.3,4.9,6.3,8.9V734C448.2,739.2,443.9,743.5,438.7,743.5z M322.3,503.5
				c10,5.7,28.1,18,46.9,41.5c16,19.9,29.3,44,39.6,71.4c9.1,24.2,15.9,51.2,20.3,80.6l0-156.1c-8.9-5.7-14.5-15.6-14.5-26.4
				c0-8.4,3.3-16.3,9.2-22.2c4.6-4.6,10.4-7.6,16.7-8.7l0-170.5l-57.7,0L322.3,503.5z"/>
		</g>
		<g>
			<path class="st0" d="M537.1,312.7H355.8c-3.7,0-7.1-2.1-8.6-5.5l-20.1-43.1c-1.4-2.9-1.1-6.4,0.6-9.1c1.7-2.7,4.8-4.4,8-4.4
				h220.7c3.2,0,6.2,1.6,8,4.3c1.8,2.7,2,6.1,0.7,9.1l-19.3,43.1C544.3,310.6,540.9,312.7,537.1,312.7z M361.9,293.7H531l10.8-24.1
				H350.7L361.9,293.7z"/>
		</g>
		<path class="st0" d="M556.4,269.7H335.8c-5.2,0-9.5-4.3-9.5-9.5v-83c0-5.2,4.3-9.5,9.5-9.5h220.7c5.2,0,9.5,4.3,9.5,9.5v83
			C565.9,265.4,561.7,269.7,556.4,269.7z M345.3,250.7h201.7v-64H345.3V250.7z"/>
		<path class="st0" d="M355.6,496.1c-0.9,0-1.8-0.1-2.8-0.4c-5-1.5-7.9-6.8-6.3-11.9l54.4-178.6c1.5-5,6.8-7.9,11.9-6.3
			c5,1.5,7.9,6.8,6.3,11.9l-54.4,178.6C363.5,493.5,359.7,496.1,355.6,496.1z"/>
	</g>
	<g>
		<g>
			<path class="st0" d="M402.3,820.2c-0.4,0-0.8,0-1.1-0.1c-91.5-10.8-175.9-54.8-237.7-123.9C101.2,626.7,67,536.9,67,443.4
				C67,292.5,156.4,156,294.8,95.6c4.8-2.1,10.4,0.1,12.5,4.9c2.1,4.8-0.1,10.4-4.9,12.5C170.9,170.4,86,300,86,443.4
				c0,88.8,32.6,174,91.7,240.1c58.7,65.6,138.8,107.4,225.8,117.7c5.2,0.6,8.9,5.3,8.3,10.6C411.1,816.6,407,820.2,402.3,820.2z"/>
			<path class="st0" d="M289.3,115.4c-2.3,0-4.5-0.8-6.2-2.3c-1-0.9-23.9-21.2-15.3-53.2c7.8-29.2,39.9-56.5,41.2-57.6
				c2.4-2,5.6-2.7,8.6-1.9c3,0.8,5.4,3,6.5,6c0.6,1.7,14.7,41.4,6.9,70.5c-8.6,32-38.6,38.1-39.8,38.4
				C290.5,115.3,289.9,115.4,289.3,115.4z M310.4,27.2c-8.9,9.3-20.5,23.6-24.2,37.5c-3.8,14.2,2,24.9,6.1,30.2
				c6.2-2.6,16.6-8.9,20.4-23.1C316.1,58.6,313.5,40.5,310.4,27.2z"/>
			<path class="st0" d="M110.2,284c-0.6,0-1.2-0.1-1.8-0.2c-1.3-0.2-31.3-6.4-39.8-38.4c-7.8-29.2,6.3-68.8,6.9-70.5
				c1.1-2.9,3.5-5.1,6.5-6c3-0.8,6.2-0.1,8.6,1.9c1.4,1.1,33.4,28.5,41.2,57.6c8.6,32-14.3,52.3-15.3,53.2
				C114.7,283.2,112.5,284,110.2,284z M89.1,195.9c-3,12.5-6,30.7-2.2,44.6c3.8,14.2,14.2,20.5,20.4,23.1c4.1-5.3,9.9-16,6.1-30.2
				C109.8,220.2,98.5,205.8,89.1,195.9z"/>
			<path class="st0" d="M69.5,420c-7.3,0-32.1-1.9-46.5-26.8c-15.1-26.1-11.7-68.1-11.6-69.9c0.3-3.1,2-5.9,4.7-7.4
				c2.7-1.6,6-1.7,8.8-0.4c1.6,0.8,39.6,18.9,54.7,45c16.6,28.7-0.3,54.2-1,55.3c-1.6,2.4-4.3,4-7.2,4.2C71.2,420,70.5,420,69.5,420
				z M30,340c0.3,12.9,2.2,31.2,9.4,43.7c7.3,12.7,18.8,16.1,25.7,17c2.5-6.2,5.4-18-1.9-30.7C55.9,357.5,41,346.8,30,340z"/>
			<path class="st0" d="M67.2,552.2c-10.1,0-24.9-2.7-37.8-15.7C8.1,515.2,0.5,473.8,0.1,472c-0.5-3.1,0.4-6.2,2.6-8.4
				c2.2-2.2,5.3-3.2,8.4-2.6c1.8,0.3,43.2,8,64.5,29.3C99.1,513.7,89.4,542.7,89,544c-1,2.8-3.1,4.9-5.9,5.9
				C82.4,550.1,76.1,552.2,67.2,552.2z M22.5,483.3c3.6,12.3,10.2,29.6,20.4,39.8c6.7,6.7,14.9,10.1,24.4,10.1
				c1.8,0,3.4-0.1,4.8-0.3c0.8-6.6,0.6-18.8-9.8-29.2C52.5,494,35.6,487.2,22.5,483.3z"/>
			<path class="st0" d="M122.3,692.1c-9.2,0-18.2-2.4-26.5-7.2c-26.1-15.1-44.2-53.1-45-54.7c-1.3-2.8-1.2-6.1,0.4-8.8
				c1.6-2.7,4.3-4.5,7.4-4.7c0.2,0,4.9-0.4,12.1-0.4c16.9,0,40.6,2.1,57.8,12c28.7,16.6,26.9,47.1,26.8,48.4
				c-0.2,2.9-1.7,5.6-4.2,7.2C149.9,684.7,138.4,692.1,122.3,692.1z M75.3,635.2c6.7,11,17.5,25.9,30,33.1c5.4,3.1,11.1,4.7,17,4.7
				c5.6,0,10.5-1.4,13.8-2.8c-0.9-6.6-4.3-18.3-17-25.6C106.4,637.4,87.8,635.6,75.3,635.2z"/>
			<path class="st0" d="M213.1,797.7c-1.5,0-3-0.1-4.6-0.2c-30.1-2.4-62.7-29-64.1-30.1c-2.4-2-3.7-5-3.4-8.1c0.2-3.1,2-5.9,4.7-7.4
				c1.4-0.8,34.2-19.7,63.1-19.7c1.7,0,3.4,0.1,5,0.2c33,2.7,44.5,31,45,32.2c1.1,2.7,0.8,5.8-0.7,8.3
				C257.5,773.8,243.1,797.7,213.1,797.7z M168.8,761.5c10.8,7,26.9,15.9,41.3,17.1c1,0.1,2,0.1,3,0.1c13,0,21.4-7,25.6-11.6
				c-3.6-5.6-11.7-14.7-26.4-15.9c-1.1-0.1-2.3-0.1-3.5-0.1C195.1,751.1,179.6,756.7,168.8,761.5z"/>
			<path class="st0" d="M317,864.9c-17.2,0-31.5-2.8-32.1-2.9c-3.1-0.6-5.6-2.7-6.9-5.5c-1.2-2.8-1-6.1,0.6-8.8
				c0.9-1.5,23.1-37.3,50.8-49.4c6.9-3,14.1-4.6,21.4-4.6c19.5,0,32.9,11.2,33.5,11.7c2.2,1.9,3.5,4.7,3.3,7.6
				c-0.1,1.3-1.7,31.9-32,45.1C345.4,862.7,332.4,864.9,317,864.9z M303.5,845.3c4,0.3,8.6,0.6,13.5,0.6c12.7,0,23.4-1.8,31-5.1
				c13.4-5.9,18.1-17.1,19.8-23.6c-3.8-2-9.8-4.5-17-4.5c-4.6,0-9.2,1-13.7,3C324.4,821.2,311.9,834.6,303.5,845.3z"/>
			<path class="st0" d="M187.7,181.8c-1.4,0-2.8-0.3-4.2-1c-1.2-0.6-28.5-14.3-28.5-47.4c0-30.2,23.9-64.9,24.9-66.3
				c1.8-2.6,4.7-4.1,7.8-4.1c3.1,0,6,1.5,7.8,4.1c1,1.5,24.9,36.1,24.9,66.3c0,33.1-27.4,46.8-28.5,47.4
				C190.5,181.5,189.1,181.8,187.7,181.8z M187.7,90.9c-6.2,11.3-13.7,28.1-13.7,42.5c0,14.7,8.4,23.5,13.7,27.6
				c5.3-4.1,13.7-12.9,13.7-27.6C201.4,119.7,194.2,102.9,187.7,90.9z"/>
		</g>
		<g>
			<path class="st0" d="M489.9,820.2c-4.7,0-8.8-3.6-9.4-8.4c-0.6-5.2,3.1-9.9,8.3-10.6c86.9-10.3,167.1-52.1,225.8-117.7
				c59.1-66.1,91.7-151.4,91.7-240.1c0-143.4-84.9-273.1-216.4-330.4c-4.8-2.1-7-7.7-4.9-12.5c2.1-4.8,7.7-7,12.5-4.9
				C735.8,156,825.3,292.5,825.3,443.4c0,93.4-34.3,183.2-96.5,252.8c-61.7,69-146.2,113-237.7,123.9
				C490.7,820.1,490.3,820.2,489.9,820.2z"/>
			<path class="st0" d="M602.9,115.4c-0.6,0-1.2-0.1-1.8-0.2c-1.3-0.2-31.3-6.4-39.8-38.4c-7.8-29.1,6.3-68.8,6.9-70.5
				c1.1-2.9,3.5-5.1,6.5-6c3-0.8,6.2-0.1,8.6,1.9c1.4,1.1,33.4,28.5,41.2,57.6c8.6,32-14.3,52.3-15.3,53.2
				C607.4,114.5,605.2,115.4,602.9,115.4z M581.9,27.2c-3,12.5-6,30.7-2.2,44.6c3.8,14.2,14.2,20.5,20.4,23.1
				c4.1-5.3,9.9-16,6.1-30.2C602.4,50.9,590.7,36.6,581.9,27.2z"/>
			<path class="st0" d="M782,284c-2.3,0-4.5-0.8-6.2-2.3c-1-0.9-23.9-21.2-15.3-53.2c7.8-29.2,39.9-56.5,41.2-57.6
				c2.4-2,5.6-2.7,8.6-1.9c3,0.8,5.4,3,6.5,6c0.6,1.7,14.7,41.4,6.9,70.5c-8.6,32-38.6,38.1-39.8,38.4C783.2,284,782.6,284,782,284z
				 M803.1,195.9c-8.9,9.3-20.5,23.6-24.2,37.5c-3.8,14.2,2,24.9,6.1,30.2c6.2-2.6,16.6-8.9,20.4-23.1
				C809,226.6,806.1,208.4,803.1,195.9z"/>
			<path class="st0" d="M822.7,420L822.7,420c-1.2,0-1.9-0.1-1.9-0.1c-2.9-0.2-5.6-1.8-7.2-4.2c-0.7-1.1-17.6-26.6-1-55.3
				c15.1-26.1,53.1-44.2,54.7-45c2.8-1.3,6.1-1.2,8.8,0.4c2.7,1.6,4.5,4.3,4.7,7.4c0.1,1.8,3.5,43.8-11.6,69.9
				C854.9,418.1,830,420,822.7,420z M862.2,340c-11,6.7-25.9,17.5-33.1,30c-7.4,12.8-4.5,24.6-1.9,30.7c6.9-0.9,18.4-4.4,25.7-17
				C860,371.2,861.9,352.9,862.2,340z"/>
			<path class="st0" d="M825,552.2L825,552.2c-8.9,0-15.2-2.1-15.9-2.3c-2.8-1-4.9-3.1-5.9-5.9c-0.4-1.2-10.1-30.3,13.3-53.7
				c21.3-21.3,62.8-29,64.5-29.3c3.1-0.5,6.2,0.4,8.4,2.6c2.2,2.2,3.2,5.3,2.6,8.4c-0.3,1.8-8,43.2-29.3,64.5
				C849.8,549.5,835.1,552.2,825,552.2z M820.1,532.9c1.4,0.2,3,0.3,4.8,0.3h0c9.5,0,17.7-3.4,24.4-10.1
				c9.7-9.7,16.5-26.7,20.4-39.8c-12.3,3.6-29.6,10.2-39.8,20.4C819.6,514.1,819.3,526.2,820.1,532.9z"/>
			<path class="st0" d="M769.9,692.1L769.9,692.1c-16.2,0-27.6-7.4-28.9-8.2c-2.4-1.6-4-4.3-4.2-7.2c-0.1-1.3-1.9-31.9,26.8-48.4
				c17.2-9.9,40.9-12,57.8-12c7.1,0,11.9,0.4,12.1,0.4c3.1,0.3,5.9,2,7.4,4.7c1.6,2.7,1.7,6,0.4,8.8c-0.8,1.6-18.9,39.6-45,54.7
				C788.1,689.6,779.2,692.1,769.9,692.1z M756.2,670.3c3.3,1.3,8.1,2.8,13.8,2.8c5.9,0,11.6-1.6,17-4.7c11.9-6.9,22.8-21.5,30-33.1
				c-12.4,0.3-31.1,2.1-43.7,9.4C760.5,652,757,663.7,756.2,670.3z"/>
			<path class="st0" d="M679.1,797.7L679.1,797.7c-29.9,0-44.4-23.8-45-24.8c-1.5-2.5-1.7-5.6-0.7-8.3c0.5-1.2,12-29.6,45-32.2
				c1.6-0.1,3.3-0.2,5-0.2c28.9,0,61.7,18.9,63.1,19.7c2.7,1.6,4.4,4.3,4.7,7.4c0.2,3.1-1,6.1-3.4,8.1c-1.4,1.1-34,27.7-64.1,30.1
				C682.1,797.6,680.6,797.7,679.1,797.7z M653.5,767.1c4.2,4.6,12.6,11.6,25.6,11.6h0c1,0,2,0,3-0.1c13.7-1.1,29.8-9.6,41.3-17
				c-10.8-4.8-26.3-10.4-40-10.4c-1.2,0-2.4,0-3.5,0.1C665.3,752.4,657.2,761.5,653.5,767.1z"/>
			<path class="st0" d="M575.3,864.9L575.3,864.9c-15.5,0-28.5-2.2-38.6-6.7c-30.3-13.3-31.9-43.8-32-45.1c-0.1-2.9,1.1-5.7,3.3-7.6
				c0.6-0.5,14-11.7,33.5-11.7c7.2,0,14.4,1.5,21.4,4.6c27.6,12.1,49.8,47.9,50.8,49.4c1.6,2.7,1.9,5.9,0.6,8.8
				c-1.2,2.8-3.8,4.9-6.9,5.5C606.8,862.1,592.5,864.9,575.3,864.9z M524.5,817.2c1.6,6.5,6.3,17.7,19.8,23.6
				c7.6,3.3,18.3,5.1,31,5.1c4.8,0,9.4-0.2,13.4-0.6c-7.9-10.2-20.3-23.8-33.5-29.6c-4.5-2-9.1-3-13.7-3
				C534.2,812.8,528.2,815.2,524.5,817.2z"/>
			<path class="st0" d="M704.5,181.8c-1.4,0-2.8-0.3-4.2-1c-1.2-0.6-28.5-14.3-28.5-47.4c0-30.2,23.9-64.9,24.9-66.3
				c1.8-2.6,4.7-4.1,7.8-4.1l0,0c3.1,0,6,1.5,7.8,4.1c1,1.5,24.9,36.1,24.9,66.3c0,33.1-27.4,46.8-28.5,47.4
				C707.4,181.5,705.9,181.8,704.5,181.8z M704.5,90.9c-6.2,11.3-13.7,28.1-13.7,42.5c0,14.7,8.4,23.5,13.7,27.6
				c5.3-4.1,13.7-12.9,13.7-27.6C718.2,119.7,711,102.9,704.5,90.9z"/>
		</g>
	</g>
</g>
</svg>
