<?xml version="1.0" encoding="utf-8"?>
<!-- Generator: Adobe Illustrator 20.1.0, SVG Export Plug-In . SVG Version: 6.00 Build 0)  -->
<svg version="1.1" id="text" xmlns="http://www.w3.org/2000/svg" xmlns:xlink="http://www.w3.org/1999/xlink" x="0px" y="0px"
	 viewBox="0 0 786.8 788.3" style="enable-background:new 0 0 786.8 788.3;" xml:space="preserve">
<style type="text/css">
	.st0{fill:none;stroke:#007DDC;stroke-width:15;stroke-linecap:round;stroke-linejoin:round;stroke-miterlimit:10;}
</style>
<line class="st0" x1="286.8" y1="622.1" x2="187.8" y2="721.1"/>
<path class="st0" d="M341.5,659.2c-2.8,3.2-8,4.8-13,3.2S312,649,312,649l-98.5,99c0,0,13.1,12.1,14.1,18.1s-2.6,10.4-2.6,10.4
	l-0.8,0.8c-4.7,4.7-12.3,4.7-17,0l-54.3-53.8c-4.7-4.7-4.7-12.3,0-17l118.7-118.7c4.7-4.7,12.3-4.7,17,0l48.6,48.6
	c0,0,6.8,6.2,7.9,9.9C346.8,652.5,343.6,656.8,341.5,659.2z"/>
<line class="st0" x1="260.3" y1="596" x2="241.3" y2="577"/>
<line class="st0" x1="161" y1="693.7" x2="141.8" y2="674.5"/>
<path class="st0" d="M390.2,423.2c0,0-251.5,251.5-257.8,257.8s-17.7,7.3-25.8-3.5c-7.7-10.2-2.7-21.3,1.2-25.2
	c3.8-3.8,257.7-257.7,257.7-257.7"/>
<path class="st0" d="M396.5,363.5c0,0,87.5-87,91-92s10-18,10-33.5s-6-36-6-36"/>
<path class="st0" d="M522,210.5c0,0,6,29,3.5,51"/>
<path class="st0" d="M661,123.7c4-27-2.3-54.5-32.5-84.7c-35.5-35.5-79-29.5-99-25.5c-20,4-55.4,26.3-70,61
	c-15,35.5-12.5,69.5,15.5,108c26.2,36,72.5,26.5,72.5,26.5s37.4-7.2,44-45c6.5-37-29.5-59.5-29.5-59.5s-9-2.5-14.5,2s-5,10-3.5,16
	s19,10.5,19.5,30c0.5,17.7-10.3,26.6-24,30.5c-19.5,5.5-40-10-50-28.5C479.1,135.2,468,89,502.5,59s74.8-27,103.5-5.5
	c28.7,21.5,31,56.5,30,66c-1,9.2-2.3,14.2-2.3,14.2"/>
<path class="st0" d="M639.4,48.9c12-24.5,37.1-41.4,66.3-41.4c40.7,0,73.7,33,73.7,73.7c0,29.3-17.1,54.5-41.8,66.4"/>
<path class="st0" d="M658.5,81.6c0-25.8,20.9-46.6,46.6-46.6c25.8,0,46.6,20.9,46.6,46.6s-20.9,46.6-46.6,46.6"/>
<path class="st0" d="M422.9,390.4c0,0,87-87.5,92-91c5-3.5,18-10,33.5-10s36,6,36,6"/>
<path class="st0" d="M575.9,264.9c0,0-24.9-6.4-46.9-3.9"/>
<path class="st0" d="M663,125.3c27-4,54.2,2.9,84.4,33.1c35.5,35.5,29.5,79,25.5,99s-26.3,55.4-61,70c-35.5,15-69.5,12.5-108-15.5
	c-36-26.2-26.5-72.5-26.5-72.5s7.2-37.4,45-44c37-6.5,59.5,29.5,59.5,29.5s2.5,9-2,14.5s-10,5-16,3.5s-10.5-19-30-19.5
	c-17.7-0.5-26.6,10.3-30.5,24c-5.5,19.5,10,40,28.5,50c19.3,10.4,65.5,21.5,95.5-13s27.7-75.4,5.5-103.5c-24.5-31-56.5-29.5-66-30
	c-3.8-0.2-9.6,1.3-13.2,2.1"/>
<path class="st0" d="M737.5,147.5c24.5-11.9,41.4-37.1,41.4-66.3c0-40.7-33-73.7-73.7-73.7c-29.3,0-54.5,17.1-66.4,41.8"/>
<path class="st0" d="M704.8,128.4c25.8,0,46.6-20.9,46.6-46.6s-20.9-46.6-46.6-46.6c-25.8,0-46.6,20.9-46.6,46.6"/>
<path class="st0" d="M634,133.3c0,0-2.5,10.2,3.5,16.2c6.8,6.8,18.5,2.8,18.5,2.8"/>
<line class="st0" x1="500" y1="622.1" x2="599" y2="721.1"/>
<path class="st0" d="M445.3,659.2c2.8,3.2,8,4.8,13,3.2s16.5-13.5,16.5-13.5l98.5,99c0,0-13.1,12.1-14.1,18.1s2.6,10.4,2.6,10.4
	l0.8,0.8c4.7,4.7,12.3,4.7,17,0l54.3-53.8c4.7-4.7,4.7-12.3,0-17L515.2,587.8c-4.7-4.7-12.3-4.7-17,0l-48.6,48.6
	c0,0-6.8,6.2-7.9,9.9C440.1,652.5,443.2,656.8,445.3,659.2z"/>
<line class="st0" x1="526.5" y1="596" x2="545.5" y2="577"/>
<path class="st0" d="M396.6,423.2c0,0,251.5,251.5,257.8,257.8c6.3,6.3,17.7,7.3,25.8-3.5c7.7-10.2,2.7-21.3-1.2-25.2
	c-3.8-3.8-257.7-257.7-257.7-257.7"/>
<path class="st0" d="M452.9,426.1c0,0-150.1-149.6-153.6-154.6s-10-18-10-33.5s6-36,6-36"/>
<path class="st0" d="M264.8,210.5c0,0-6,29-3.5,51"/>
<path class="st0" d="M125.8,123.7c-4-27,2.3-54.5,32.5-84.7c35.5-35.5,79-29.5,99-25.5s55.4,26.3,70,61c15,35.5,12.5,69.5-15.5,108
	c-26.2,36-72.5,26.5-72.5,26.5s-37.4-7.2-44-45c-6.5-37,29.5-59.5,29.5-59.5s9-2.5,14.5,2s5,10,3.5,16s-19,10.5-19.5,30
	c-0.5,17.7,10.3,26.6,24,30.5c19.5,5.5,40-10,50-28.5c10.4-19.3,21.5-65.5-13-95.5s-74.8-27-103.5-5.5c-28.7,21.5-31,56.5-30,66
	c1,9.2,2.3,14.2,2.3,14.2"/>
<path class="st0" d="M147.4,48.9C135.5,24.4,110.3,7.5,81.2,7.5c-40.7,0-73.7,33-73.7,73.7c0,29.3,17.1,54.5,41.8,66.4"/>
<path class="st0" d="M128.3,81.6c0-25.8-20.9-46.6-46.6-46.6S35,55.9,35,81.6s20.9,46.6,46.6,46.6"/>
<path class="st0" d="M426.5,453c0,0-149.6-150.1-154.6-153.6s-18-10-33.5-10s-36,6-36,6"/>
<path class="st0" d="M210.9,264.9c0,0,28.1-5.4,50.1-2.9"/>
<path class="st0" d="M123.8,125.3c-27-4-54.2,2.9-84.4,33.1c-35.5,35.5-29.5,79-25.5,99s26.3,55.4,61,70c35.5,15,69.5,12.5,108-15.5
	c36-26.2,26.5-72.5,26.5-72.5s-7.2-37.4-45-44c-37-6.5-59.5,29.5-59.5,29.5s-2.5,9,2,14.5s10,5,16,3.5s10.5-19,30-19.5
	c17.7-0.5,26.6,10.3,30.5,24c5.5,19.5-10,40-28.5,50c-19.3,10.4-65.5,21.5-95.5-13S31.7,209,53.9,180.9c24.5-31,56.5-29.5,66-30
	c3.8-0.2,9.6,1.3,13.2,2.1"/>
<path class="st0" d="M49.4,147.5C24.8,135.6,7.9,110.4,7.9,81.3c0-40.7,33-73.7,73.7-73.7c29.3,0,54.5,17.1,66.4,41.8"/>
<path class="st0" d="M82,128.4c-25.8,0-46.6-20.9-46.6-46.6S56.3,35.1,82,35.1s46.6,20.9,46.6,46.6"/>
<path class="st0" d="M152.8,133.3c0,0,1.2,8.7-4.8,14.7c-6.8,6.8-17.2,4.3-17.2,4.3"/>
<line class="st0" x1="646" y1="674" x2="627" y2="693"/>
</svg>
