<?xml version="1.0" encoding="utf-8"?>
<!-- Generator: Adobe Illustrator 20.1.0, SVG Export Plug-In . SVG Version: 6.00 Build 0)  -->
<svg version="1.1" id="Layer_1" xmlns="http://www.w3.org/2000/svg" xmlns:xlink="http://www.w3.org/1999/xlink" x="0px" y="0px"
	 viewBox="0 0 163.7 118.3" style="enable-background:new 0 0 163.7 118.3;" xml:space="preserve">
<style type="text/css">
	.st0{fill:#327ABE;stroke:#327ABE;stroke-width:2;stroke-linecap:round;stroke-linejoin:round;stroke-miterlimit:10;}
</style>
<g>
	<path class="st0" d="M151.8,55.7c-10.9-11.5-21-22.3-31.2-33.1c-4.7-5-9.6-9.9-14.1-15.2c-1-1.2-3.3-3.2-1-5.4
		c2.4-2.3,4.3-0.1,5.3,1c16.9,17.7,33.6,35.5,50.3,53.3c2.1,2.2,1.8,4.1-0.2,6.2c-16.7,17.7-33.2,35.4-50,53c-1.1,1.1-3,2.8-5.2,1.1
		c-2.2-1.8-0.9-3.9,0.8-5.7c14.2-15.1,28.3-30.1,42.5-45.2c0.7-0.7,1.3-1.5,2.7-3.2c-2.7,0-4.4,0-6.1,0c-45.3,0-90.6,0-135.9,0
		c-1.2,0-2.4,0-3.6,0c-2.4,0-5.4,0.2-5.3-3.3c0.1-3.4,3.1-3,5.5-3c37.3,0,74.7,0,112,0c9.7,0,19.5,0,29.2,0
		C148.7,56.1,149.7,55.9,151.8,55.7z"/>
</g>
</svg>
