<?xml version="1.0" encoding="utf-8"?>
<!-- Generator: Adobe Illustrator 20.1.0, SVG Export Plug-In . SVG Version: 6.00 Build 0)  -->
<svg version="1.1" id="Layer_1" xmlns="http://www.w3.org/2000/svg" xmlns:xlink="http://www.w3.org/1999/xlink" x="0px" y="0px"
	 viewBox="0 0 76.9 70.7" style="enable-background:new 0 0 76.9 70.7;" xml:space="preserve">
<style type="text/css">
	.st0{fill:#FFFFFF;}
</style>
<path class="st0" d="M16.9,70.7h-15v-48h15V70.7z M9.1,16.7H8.9C3.5,16.7,0,13,0,8.3C0,3.6,3.6,0,9.2,0c5.5,0,8.9,3.6,9,8.3
	C18.2,13,14.7,16.7,9.1,16.7z M76.9,70.7h-17V45.8c0-6.5-2.7-10.9-8.5-10.9c-4.5,0-7,3-8.1,5.9c-0.4,1-0.4,2.5-0.4,3.9v26H26.1
	c0,0,0.2-44,0-48h16.8v7.5c1-3.3,6.4-8,15-8c10.6,0,19,6.9,19,21.8V70.7z"/>
</svg>
