<?xml version="1.0" encoding="utf-8"?>
<!-- Generator: Adobe Illustrator 20.1.0, SVG Export Plug-In . SVG Version: 6.00 Build 0)  -->
<svg version="1.1" id="Layer_1" xmlns="http://www.w3.org/2000/svg" xmlns:xlink="http://www.w3.org/1999/xlink" x="0px" y="0px"
	 viewBox="0 0 43.1 88.8" style="enable-background:new 0 0 43.1 88.8;" xml:space="preserve">
<style type="text/css">
	.st0{fill:#FFFFFF;}
</style>
<path id="Facebook_1_" class="st0" d="M9.3,17.9c0,2.3,0,12.7,0,12.7H0v15.5h9.3v42.7h19.1V46.1h12.8c0,0,1.2-7.5,1.8-15.6
	c-1.7,0-14.5,0-14.5,0s0-9,0-10.6c0-1.6,2.1-3.7,4.1-3.7c2.1,0,6.4,0,10.4,0c0-2.1,0-9.4,0-16.2c-5.4,0-11.5,0-14.2,0
	C8.8,0,9.3,15.6,9.3,17.9z"/>
</svg>
