<svg id="Icons" xmlns="http://www.w3.org/2000/svg" viewBox="0 0 96.6 78.4"><defs><style>.cls-1{fill:#00a6e4;}</style></defs><title>social_twitter_hover</title><path class="cls-1" d="M96.6,9.3a40.1,40.1,0,0,1-11.4,3.1,19.9,19.9,0,0,0,8.7-11A39.2,39.2,0,0,1,81.3,6.2,19.88,19.88,0,0,0,47,19.8a21.38,21.38,0,0,0,.5,4.5A56.2,56.2,0,0,1,6.7,3.6,20.23,20.23,0,0,0,4,13.6a19.88,19.88,0,0,0,8.8,16.5,19.89,19.89,0,0,1-9-2.5v.2A19.75,19.75,0,0,0,19.7,47.2a18.13,18.13,0,0,1-5.2.7,15,15,0,0,1-3.7-.4A19.82,19.82,0,0,0,29.3,61.3,39.84,39.84,0,0,1,4.7,69.8,35.93,35.93,0,0,1,0,69.5a56.41,56.41,0,0,0,30.4,8.9c36.4,0,56.4-30.2,56.4-56.4a22.6,22.6,0,0,0-.1-2.6A36.64,36.64,0,0,0,96.6,9.3Z" transform="translate(0)"/></svg>