<svg id="Icons" xmlns="http://www.w3.org/2000/svg" viewBox="0 0 101 64.2"><defs><style>.cls-1{fill:#00a6e4;}</style></defs><title>social_google_hover</title><path class="cls-1" d="M32.1,25.7V38.4H49.4c-2.7,8.2-6.9,12.7-17.3,12.7A18.76,18.76,0,0,1,13.4,32,18.82,18.82,0,0,1,32.1,12.9a18.37,18.37,0,0,1,12.5,4.7c2.6-2.6,2.4-3,9.1-9.4A32.83,32.83,0,0,0,32.1,0a32.1,32.1,0,0,0,0,64.2c26.5,0,33-23.1,30.8-38.4C56.6,25.7,32.1,25.7,32.1,25.7Zm57.8.7V15.2H82V26.3H70.5v7.9H81.9V45.6h7.9V34.3H101V26.4Z"/></svg>