<?xml version="1.0" encoding="utf-8"?>
<!-- Generator: Adobe Illustrator 20.1.0, SVG Export Plug-In . SVG Version: 6.00 Build 0)  -->
<svg version="1.1" id="Icons" xmlns="http://www.w3.org/2000/svg" xmlns:xlink="http://www.w3.org/1999/xlink" x="0px" y="0px"
	 viewBox="0 0 101 64.2" style="enable-background:new 0 0 101 64.2;" xml:space="preserve">
<style type="text/css">
	.st0{fill:#FFFFFF;}
</style>
<g>
	<g>
		<path class="st0" d="M32.1,25.7v12.7c0,0,12.3,0,17.3,0c-2.7,8.2-6.9,12.7-17.3,12.7c-10.5,0-18.7-8.5-18.7-19.1
			c0-10.5,8.2-19.1,18.7-19.1c5.6,0,9.2,2,12.5,4.7c2.6-2.6,2.4-3,9.1-9.4C48,3.2,40.4,0,32.1,0C14.4,0,0,14.4,0,32.1
			s14.4,32.1,32.1,32.1c26.5,0,33-23.1,30.8-38.4C56.6,25.7,32.1,25.7,32.1,25.7z M89.9,26.4V15.2H82v11.1H70.5v7.9h11.4v11.4h7.9
			V34.3H101v-7.9H89.9z"/>
	</g>
</g>
</svg>
